# Blender v2.92.0 OBJ File: 'untitled.blend'
# www.blender.org
mtllib gokart_master.mtl
o mesh6
v -0.976140 0.011206 0.000000
v -0.976140 0.011206 0.600000
v 0.976140 0.011206 0.600000
v 0.976140 0.011206 0.000000
v -1.619178 -0.063217 0.600000
v -1.619178 -0.063217 0.000000
v 1.619178 -0.063217 0.000000
v 1.619178 -0.063217 0.600000
v 1.619178 -0.063217 0.600000
v 1.619178 -0.063217 0.000000
v 1.539951 0.064023 0.000000
v 1.539951 0.064023 0.600000
v -1.619178 -0.063217 0.000000
v -1.619178 -0.063217 0.600000
v -1.539951 0.064023 0.600000
v -1.539951 0.064023 0.000000
v 1.183554 0.099074 0.000000
v 1.183554 0.099074 0.600000
v 1.198923 0.110281 0.600000
v 1.198923 0.110281 0.000000
v 1.216023 0.120312 0.600000
v 1.216023 0.120312 0.000000
v 1.234650 0.129050 0.600000
v 1.234650 0.129050 0.000000
v 1.254588 0.136391 0.600000
v 1.254588 0.136391 0.000000
v 1.275600 0.142249 0.600000
v 1.275600 0.142249 0.000000
v 1.297443 0.146556 0.600000
v 1.297443 0.146556 0.000000
v 1.319856 0.149261 0.600000
v 1.319856 0.149261 0.000000
v 1.342575 0.150331 0.600000
v 1.342575 0.150331 0.000000
v 1.365336 0.149755 0.600000
v 1.365336 0.149755 0.000000
v 1.387869 0.147539 0.600000
v 1.387869 0.147539 0.000000
v 1.409907 0.143709 0.600000
v 1.409907 0.143709 0.000000
v 1.431195 0.138311 0.600000
v 1.431195 0.138311 0.000000
v 1.451484 0.131407 0.600000
v 1.451484 0.131407 0.000000
v 1.470528 0.123079 0.600000
v 1.470528 0.123079 0.000000
v 1.488108 0.113424 0.600000
v 1.488108 0.113424 0.000000
v 1.504017 0.102558 0.600000
v 1.504017 0.102558 0.000000
v 1.518066 0.090606 0.600000
v 1.518066 0.090606 0.000000
v 1.530093 0.077711 0.600000
v 1.530093 0.077711 0.000000
v 1.539951 0.064023 0.600000
v 1.539951 0.064023 0.000000
v 1.138584 0.062481 0.000000
v 1.138584 0.062481 0.600000
v 1.183554 0.099074 0.600000
v 1.183554 0.099074 0.000000
v 1.124745 0.052284 0.600000
v 1.138584 0.062481 0.600000
v 1.138584 0.062481 0.000000
v 1.109469 0.043042 0.600000
v 1.124745 0.052284 0.000000
v 1.092909 0.034843 0.600000
v 1.109469 0.043042 0.000000
v 1.075221 0.027767 0.600000
v 1.092909 0.034843 0.000000
v 1.056576 0.021882 0.600000
v 1.075221 0.027767 0.000000
v 1.037157 0.017245 0.600000
v 1.056576 0.021882 0.000000
v 1.017147 0.013901 0.600000
v 1.037157 0.017245 0.000000
v 0.996744 0.011881 0.600000
v 1.017147 0.013901 0.000000
v 0.976140 0.011206 0.600000
v 0.996744 0.011881 0.000000
v 0.976140 0.011206 0.000000
v -1.234650 0.129050 0.600000
v -1.431195 0.138311 0.600000
v -1.451484 0.131407 0.600000
v -1.365336 0.149755 0.600000
v -1.254588 0.136391 0.600000
v -1.275600 0.142249 0.600000
v -1.518066 0.090606 0.600000
v -1.530093 0.077711 0.600000
v -1.409907 0.143709 0.600000
v -1.387869 0.147539 0.600000
v -1.297443 0.146556 0.600000
v -1.319856 0.149261 0.600000
v -1.342575 0.150331 0.600000
v 1.216023 0.120312 0.600000
v 1.275600 0.142249 0.600000
v 1.254588 0.136391 0.600000
v 1.319856 0.149261 0.600000
v 1.297443 0.146556 0.600000
v -1.504017 0.102558 0.600000
v -1.470528 0.123079 0.600000
v -1.488108 0.113424 0.600000
v 1.198923 0.110281 0.600000
v 1.387869 0.147539 0.600000
v 1.365336 0.149755 0.600000
v 1.518066 0.090606 0.600000
v 1.504017 0.102558 0.600000
v 1.234650 0.129050 0.600000
v 1.342575 0.150331 0.600000
v 1.451484 0.131407 0.600000
v 1.431195 0.138311 0.600000
v 1.488108 0.113424 0.600000
v 1.470528 0.123079 0.600000
v 1.530093 0.077711 0.600000
v -1.539951 0.064023 0.600000
v -1.198923 0.110281 0.600000
v -1.216023 0.120312 0.600000
v 1.409907 0.143709 0.600000
v 1.539951 0.064023 0.600000
v -1.183554 0.099074 0.600000
v -1.138584 0.062481 0.600000
v 1.619178 -0.063217 0.600000
v 0.976140 0.011206 0.600000
v -0.976140 0.011206 0.600000
v 0.996744 0.011881 0.600000
v 1.183554 0.099074 0.600000
v -1.619178 -0.063217 0.600000
v -1.124745 0.052284 0.600000
v -1.037157 0.017245 0.600000
v -1.056576 0.021882 0.600000
v -0.996744 0.011881 0.600000
v -1.017147 0.013901 0.600000
v 1.109469 0.043042 0.600000
v 1.092909 0.034843 0.600000
v 1.138584 0.062481 0.600000
v -1.109469 0.043042 0.600000
v -1.075221 0.027767 0.600000
v 1.037157 0.017245 0.600000
v 1.017147 0.013901 0.600000
v 1.075221 0.027767 0.600000
v 1.056576 0.021882 0.600000
v 1.124745 0.052284 0.600000
v -1.092909 0.034843 0.600000
v 1.216023 0.120312 0.000000
v 1.275600 0.142249 0.000000
v 1.297443 0.146556 0.000000
v 1.234650 0.129050 0.000000
v 1.254588 0.136391 0.000000
v -1.365336 0.149755 0.000000
v -1.275600 0.142249 0.000000
v -1.254588 0.136391 0.000000
v -1.234650 0.129050 0.000000
v -1.470528 0.123079 0.000000
v -1.451484 0.131407 0.000000
v 1.183554 0.099074 0.000000
v 1.342575 0.150331 0.000000
v 1.365336 0.149755 0.000000
v 1.319856 0.149261 0.000000
v 1.198923 0.110281 0.000000
v -1.297443 0.146556 0.000000
v -1.342575 0.150331 0.000000
v -1.409907 0.143709 0.000000
v -1.387869 0.147539 0.000000
v -1.431195 0.138311 0.000000
v 1.518066 0.090606 0.000000
v 1.530093 0.077711 0.000000
v 1.488108 0.113424 0.000000
v 1.504017 0.102558 0.000000
v 1.409907 0.143709 0.000000
v 1.431195 0.138311 0.000000
v -1.319856 0.149261 0.000000
v -1.504017 0.102558 0.000000
v -1.488108 0.113424 0.000000
v -1.530093 0.077711 0.000000
v -1.518066 0.090606 0.000000
v 1.451484 0.131407 0.000000
v 1.470528 0.123079 0.000000
v 1.387869 0.147539 0.000000
v -1.539951 0.064023 0.000000
v -1.216023 0.120312 0.000000
v 1.539951 0.064023 0.000000
v 1.138584 0.062481 0.000000
v -1.619178 -0.063217 0.000000
v -0.976140 0.011206 0.000000
v 0.976140 0.011206 0.000000
v -1.075221 0.027767 0.000000
v -1.056576 0.021882 0.000000
v -1.198923 0.110281 0.000000
v 1.619178 -0.063217 0.000000
v 1.124745 0.052284 0.000000
v 1.037157 0.017245 0.000000
v 1.056576 0.021882 0.000000
v 0.996744 0.011881 0.000000
v 1.017147 0.013901 0.000000
v -0.996744 0.011881 0.000000
v -1.037157 0.017245 0.000000
v -1.017147 0.013901 0.000000
v -1.092909 0.034843 0.000000
v -1.183554 0.099074 0.000000
v 1.109469 0.043042 0.000000
v 1.075221 0.027767 0.000000
v 1.092909 0.034843 0.000000
v -1.124745 0.052284 0.000000
v -1.109469 0.043042 0.000000
v -1.138584 0.062481 0.000000
v -1.183554 0.099074 0.600000
v -1.138584 0.062481 0.600000
v -1.138584 0.062481 0.000000
v -1.183554 0.099074 0.000000
v -1.124745 0.052284 0.000000
v -1.138584 0.062481 0.000000
v -1.138584 0.062481 0.600000
v -1.109469 0.043042 0.000000
v -1.124745 0.052284 0.600000
v -1.092909 0.034843 0.000000
v -1.109469 0.043042 0.600000
v -1.075221 0.027767 0.000000
v -1.092909 0.034843 0.600000
v -1.056576 0.021882 0.000000
v -1.075221 0.027767 0.600000
v -1.037157 0.017245 0.000000
v -1.056576 0.021882 0.600000
v -1.017147 0.013901 0.000000
v -1.037157 0.017245 0.600000
v -0.996744 0.011881 0.000000
v -1.017147 0.013901 0.600000
v -0.976140 0.011206 0.000000
v -0.996744 0.011881 0.600000
v -0.976140 0.011206 0.600000
v -1.539951 0.064023 0.000000
v -1.539951 0.064023 0.600000
v -1.530093 0.077711 0.600000
v -1.530093 0.077711 0.000000
v -1.518066 0.090606 0.600000
v -1.518066 0.090606 0.000000
v -1.504017 0.102558 0.600000
v -1.504017 0.102558 0.000000
v -1.488108 0.113424 0.600000
v -1.488108 0.113424 0.000000
v -1.470528 0.123079 0.600000
v -1.470528 0.123079 0.000000
v -1.451484 0.131407 0.600000
v -1.451484 0.131407 0.000000
v -1.431195 0.138311 0.600000
v -1.431195 0.138311 0.000000
v -1.409907 0.143709 0.600000
v -1.409907 0.143709 0.000000
v -1.387869 0.147539 0.600000
v -1.387869 0.147539 0.000000
v -1.365336 0.149755 0.600000
v -1.365336 0.149755 0.000000
v -1.342575 0.150331 0.600000
v -1.342575 0.150331 0.000000
v -1.319856 0.149261 0.600000
v -1.319856 0.149261 0.000000
v -1.297443 0.146556 0.600000
v -1.297443 0.146556 0.000000
v -1.275600 0.142249 0.600000
v -1.275600 0.142249 0.000000
v -1.254588 0.136391 0.600000
v -1.254588 0.136391 0.000000
v -1.234650 0.129050 0.600000
v -1.234650 0.129050 0.000000
v -1.216023 0.120312 0.600000
v -1.216023 0.120312 0.000000
v -1.198923 0.110281 0.600000
v -1.198923 0.110281 0.000000
v -1.183554 0.099074 0.600000
v -1.183554 0.099074 0.000000
vt 0.185873 0.000226
vt 0.371069 0.000226
vt 0.371069 0.602815
vt 0.185873 0.602815
vt 0.000226 0.000226
vt 0.185421 0.000226
vt 0.185421 0.999774
vt 0.000226 0.999774
vt 0.755361 0.313892
vt 0.570165 0.313892
vt 0.570165 0.250108
vt 0.755361 0.250108
vt 0.570165 0.185871
vt 0.755361 0.185871
vt 0.755361 0.249656
vt 0.570165 0.249656
vt 0.185873 0.603267
vt 0.371067 0.603267
vt 0.371067 0.610297
vt 0.185873 0.610297
vt 0.371067 0.617328
vt 0.185873 0.617328
vt 0.371067 0.624358
vt 0.185873 0.624358
vt 0.371067 0.631388
vt 0.185873 0.631388
vt 0.371067 0.638418
vt 0.185873 0.638418
vt 0.371067 0.645449
vt 0.185873 0.645449
vt 0.371067 0.652479
vt 0.185873 0.652479
vt 0.371067 0.659510
vt 0.185873 0.659509
vt 0.371067 0.666540
vt 0.185873 0.666540
vt 0.371067 0.673570
vt 0.185873 0.673570
vt 0.371067 0.680599
vt 0.185873 0.680599
vt 0.371067 0.687630
vt 0.185873 0.687630
vt 0.371067 0.694661
vt 0.185873 0.694661
vt 0.371067 0.701691
vt 0.185873 0.701691
vt 0.371067 0.708721
vt 0.185873 0.708721
vt 0.371067 0.715752
vt 0.185873 0.715751
vt 0.371067 0.722782
vt 0.185873 0.722782
vt 0.371067 0.729812
vt 0.185873 0.729812
vt 0.371067 0.736842
vt 0.185873 0.736842
vt 0.570165 0.557746
vt 0.755360 0.557746
vt 0.755360 0.579648
vt 0.570165 0.579648
vt 0.755361 0.365281
vt 0.755361 0.371647
vt 0.570165 0.371647
vt 0.755361 0.358913
vt 0.570165 0.365281
vt 0.755361 0.352546
vt 0.570165 0.358913
vt 0.755361 0.346179
vt 0.570165 0.352546
vt 0.755361 0.339812
vt 0.570165 0.346179
vt 0.755361 0.333445
vt 0.570165 0.339812
vt 0.755361 0.327078
vt 0.570165 0.333445
vt 0.755361 0.320711
vt 0.570165 0.327078
vt 0.755361 0.314344
vt 0.570165 0.320711
vt 0.570165 0.314344
vt 0.381374 0.118915
vt 0.377086 0.058249
vt 0.380283 0.051986
vt 0.371787 0.078576
vt 0.377975 0.112761
vt 0.375262 0.106275
vt 0.399173 0.031435
vt 0.405143 0.027723
vt 0.374587 0.064819
vt 0.372813 0.071622
vt 0.187394 0.099463
vt 0.186141 0.092544
vt 0.185646 0.085530
vt 0.385419 0.875335
vt 0.375262 0.893723
vt 0.377975 0.887238
vt 0.372016 0.907383
vt 0.373268 0.900465
vt 0.393639 0.035772
vt 0.384138 0.046108
vt 0.388608 0.040682
vt 0.373268 0.099533
vt 0.390064 0.870057
vt 0.372813 0.928376
vt 0.371787 0.921421
vt 0.399172 0.968563
vt 0.393639 0.964227
vt 0.371521 0.085602
vt 0.192101 0.887307
vt 0.195501 0.881152
vt 0.199547 0.875401
vt 0.371520 0.914396
vt 0.380282 0.948012
vt 0.377086 0.941749
vt 0.388608 0.959316
vt 0.384138 0.953890
vt 0.405143 0.972275
vt 0.411480 0.024680
vt 0.390064 0.129942
vt 0.385419 0.124664
vt 0.374586 0.935178
vt 0.411480 0.975318
vt 0.395252 0.134686
vt 0.412195 0.148567
vt 0.470391 0.999772
vt 0.435934 0.801292
vt 0.435935 0.198704
vt 0.435622 0.807653
vt 0.395252 0.865313
vt 0.470391 0.000226
vt 0.416916 0.152838
vt 0.433139 0.179872
vt 0.430992 0.173879
vt 0.435622 0.192344
vt 0.434687 0.186049
vt 0.421194 0.842446
vt 0.424991 0.837334
vt 0.412194 0.851432
vt 0.421195 0.157553
vt 0.428267 0.168124
vt 0.433138 0.820126
vt 0.434687 0.813950
vt 0.428267 0.831874
vt 0.430991 0.826120
vt 0.416915 0.847161
vt 0.424991 0.162665
vt 0.484742 0.124665
vt 0.474585 0.106275
vt 0.472591 0.099533
vt 0.000591 0.248769
vt 0.000115 0.240016
vt 0.000591 0.231263
vt 0.471110 0.921422
vt 0.474585 0.893724
vt 0.477297 0.887238
vt 0.480696 0.881084
vt 0.483461 0.953891
vt 0.479605 0.948012
vt 0.494575 0.134686
vt 0.470843 0.085603
vt 0.471110 0.078577
vt 0.005989 0.110791
vt 0.003405 0.104251
vt 0.013199 0.122843
vt 0.471339 0.092615
vt 0.489386 0.129943
vt 0.472591 0.900466
vt 0.470843 0.914397
vt 0.473909 0.935179
vt 0.472136 0.928377
vt 0.476409 0.941750
vt 0.498495 0.031435
vt 0.504465 0.027723
vt 0.487930 0.040682
vt 0.492962 0.035772
vt 0.473909 0.064820
vt 0.476408 0.058249
vt 0.000000 0.000000
vt 1.000000 0.000000
vt 1.000000 1.000000
vt 0.492962 0.964227
vt 0.487931 0.959317
vt 0.504466 0.972276
vt 0.498495 0.968564
vt 0.479605 0.051987
vt 0.483461 0.046109
vt 0.472136 0.071622
vt 0.510803 0.975319
vt 0.484742 0.875335
vt 0.510803 0.024680
vt 0.511517 0.148567
vt 0.569714 0.999773
vt 0.535257 0.801292
vt 0.535257 0.198704
vt 0.527589 0.831875
vt 0.530313 0.826120
vt 0.489386 0.870057
vt 0.569714 0.000226
vt 0.516238 0.152839
vt 0.532461 0.179872
vt 0.530314 0.173880
vt 0.534944 0.192344
vt 0.534010 0.186049
vt 0.534944 0.807653
vt 0.532460 0.820127
vt 0.534009 0.813951
vt 0.524313 0.837335
vt 0.494574 0.865313
vt 0.520518 0.157554
vt 0.527590 0.168125
vt 0.524314 0.162665
vt 0.516238 0.847161
vt 0.520517 0.842446
vt 0.511517 0.851433
vt 0.627920 0.372099
vt 0.649822 0.372099
vt 0.649822 0.557294
vt 0.627920 0.557294
vt 0.621102 0.372099
vt 0.627469 0.372099
vt 0.627469 0.557294
vt 0.614735 0.372099
vt 0.621102 0.557294
vt 0.608368 0.372099
vt 0.614735 0.557294
vt 0.602001 0.372099
vt 0.608368 0.557294
vt 0.595633 0.372099
vt 0.602001 0.557294
vt 0.589267 0.372099
vt 0.595633 0.557294
vt 0.582899 0.372099
vt 0.589267 0.557294
vt 0.576533 0.372099
vt 0.582899 0.557294
vt 0.570165 0.372099
vt 0.576533 0.557294
vt 0.570165 0.557294
vt 0.570165 0.185420
vt 0.570165 0.000226
vt 0.577195 0.000226
vt 0.577195 0.185420
vt 0.584226 0.000226
vt 0.584226 0.185420
vt 0.591256 0.000226
vt 0.591256 0.185420
vt 0.598286 0.000226
vt 0.598286 0.185420
vt 0.605317 0.000226
vt 0.605317 0.185420
vt 0.612347 0.000226
vt 0.612347 0.185420
vt 0.619378 0.000226
vt 0.619378 0.185420
vt 0.626408 0.000226
vt 0.626408 0.185420
vt 0.633437 0.000226
vt 0.633437 0.185420
vt 0.640468 0.000226
vt 0.640468 0.185420
vt 0.647498 0.000226
vt 0.647498 0.185420
vt 0.654528 0.000226
vt 0.654528 0.185420
vt 0.661559 0.000226
vt 0.661559 0.185420
vt 0.668589 0.000226
vt 0.668589 0.185420
vt 0.675619 0.000226
vt 0.675619 0.185420
vt 0.682650 0.000226
vt 0.682650 0.185420
vt 0.689680 0.000226
vt 0.689680 0.185420
vt 0.696710 0.000226
vt 0.696710 0.185420
vt 0.703741 0.000226
vt 0.703741 0.185420
vn 0.0000 1.0000 0.0000
vn 0.0000 -1.0000 0.0000
vn 0.8489 0.5286 0.0000
vn -0.8489 0.5286 0.0000
vn -0.6321 0.7749 0.0000
vn -0.5483 0.8363 0.0000
vn -0.4658 0.8849 0.0000
vn -0.3855 0.9227 0.0000
vn -0.3073 0.9516 0.0000
vn -0.2312 0.9729 0.0000
vn -0.1567 0.9876 0.0000
vn -0.0835 0.9965 0.0000
vn -0.0109 0.9999 0.0000
vn 0.0616 0.9981 0.0000
vn 0.1346 0.9909 0.0000
vn 0.2087 0.9780 0.0000
vn 0.2842 0.9588 0.0000
vn 0.3617 0.9323 0.0000
vn 0.4415 0.8973 0.0000
vn 0.5233 0.8521 0.0000
vn 0.6068 0.7948 0.0000
vn 0.6908 0.7231 0.0000
vn 0.7729 0.6345 0.0000
vn 0.8419 0.5396 -0.0000
vn -0.6312 0.7756 0.0000
vn -0.5560 0.8312 0.0000
vn -0.6320 0.7750 0.0000
vn -0.4811 0.8767 0.0000
vn -0.4079 0.9130 0.0000
vn -0.3364 0.9417 0.0000
vn -0.2668 0.9638 0.0000
vn -0.1987 0.9801 0.0000
vn -0.1318 0.9913 0.0000
vn -0.0657 0.9978 0.0000
vn 0.0164 0.9999 0.0000
vn 0.0000 0.0000 1.0000
vn 0.0000 0.0000 -1.0000
vn 0.6312 0.7756 0.0000
vn 0.5560 0.8312 0.0000
vn 0.6320 0.7750 -0.0000
vn 0.4811 0.8767 0.0000
vn 0.4079 0.9130 0.0000
vn 0.3364 0.9417 0.0000
vn 0.2668 0.9638 0.0000
vn 0.1987 0.9801 0.0000
vn 0.1318 0.9913 0.0000
vn 0.0657 0.9978 0.0000
vn -0.0164 0.9999 0.0000
vn -0.8419 0.5396 0.0000
vn -0.7729 0.6345 0.0000
vn -0.6908 0.7231 0.0000
vn -0.6068 0.7948 0.0000
vn -0.5233 0.8521 0.0000
vn -0.4415 0.8973 0.0000
vn -0.3617 0.9323 0.0000
vn -0.2842 0.9588 0.0000
vn -0.2087 0.9780 0.0000
vn -0.1346 0.9909 0.0000
vn -0.0616 0.9981 0.0000
vn 0.0109 0.9999 0.0000
vn 0.0835 0.9965 0.0000
vn 0.1567 0.9876 0.0000
vn 0.2312 0.9729 0.0000
vn 0.3073 0.9516 0.0000
vn 0.3855 0.9227 0.0000
vn 0.4658 0.8849 0.0000
vn 0.5483 0.8363 0.0000
vn 0.6321 0.7749 -0.0000
usemtl 0.615686_0.811765_0.929412_0.000000_0.000000
s 1
f 1/1/1 2/2/1 3/3/1
f 3/3/1 4/4/1 1/1/1
f 5/5/2 6/6/2 7/7/2
f 7/7/2 8/8/2 5/5/2
f 9/9/3 10/10/3 11/11/3
f 11/11/3 12/12/3 9/9/3
f 13/13/4 14/14/4 15/15/4
f 15/15/4 16/16/4 13/13/4
f 17/17/5 18/18/5 19/19/6
f 20/20/6 19/19/6 21/21/7
f 22/22/7 21/21/7 23/23/8
f 24/24/8 23/23/8 25/25/9
f 26/26/9 25/25/9 27/27/10
f 28/28/10 27/27/10 29/29/11
f 30/30/11 29/29/11 31/31/12
f 32/32/12 31/31/12 33/33/13
f 34/34/13 33/33/13 35/35/14
f 36/36/14 35/35/14 37/37/15
f 38/38/15 37/37/15 39/39/16
f 40/40/16 39/39/16 41/41/17
f 42/42/17 41/41/17 43/43/18
f 44/44/18 43/43/18 45/45/19
f 46/46/19 45/45/19 47/47/20
f 48/48/20 47/47/20 49/49/21
f 50/50/21 49/49/21 51/51/22
f 52/52/22 51/51/22 53/53/23
f 54/54/23 53/53/23 55/55/24
f 55/55/24 56/56/24 54/54/23
f 53/53/23 54/54/23 52/52/22
f 51/51/22 52/52/22 50/50/21
f 49/49/21 50/50/21 48/48/20
f 47/47/20 48/48/20 46/46/19
f 45/45/19 46/46/19 44/44/18
f 43/43/18 44/44/18 42/42/17
f 41/41/17 42/42/17 40/40/16
f 39/39/16 40/40/16 38/38/15
f 37/37/15 38/38/15 36/36/14
f 35/35/14 36/36/14 34/34/13
f 33/33/13 34/34/13 32/32/12
f 31/31/12 32/32/12 30/30/11
f 29/29/11 30/30/11 28/28/10
f 27/27/10 28/28/10 26/26/9
f 25/25/9 26/26/9 24/24/8
f 23/23/8 24/24/8 22/22/7
f 21/21/7 22/22/7 20/20/6
f 19/19/6 20/20/6 17/17/5
f 57/57/25 58/58/25 59/59/25
f 59/59/25 60/60/25 57/57/25
f 61/61/26 62/62/27 63/63/27
f 64/64/28 61/61/26 65/65/26
f 66/66/29 64/64/28 67/67/28
f 68/68/30 66/66/29 69/69/29
f 70/70/31 68/68/30 71/71/30
f 72/72/32 70/70/31 73/73/31
f 74/74/33 72/72/32 75/75/32
f 76/76/34 74/74/33 77/77/33
f 78/78/35 76/76/34 79/79/34
f 79/79/34 80/80/35 78/78/35
f 77/77/33 79/79/34 76/76/34
f 75/75/32 77/77/33 74/74/33
f 73/73/31 75/75/32 72/72/32
f 71/71/30 73/73/31 70/70/31
f 69/69/29 71/71/30 68/68/30
f 67/67/28 69/69/29 66/66/29
f 65/65/26 67/67/28 64/64/28
f 63/63/27 65/65/26 61/61/26
f 81/81/36 82/82/36 83/83/36
f 84/84/36 85/85/36 86/86/36
f 81/81/36 87/87/36 88/88/36
f 81/81/36 89/89/36 82/82/36
f 81/81/36 84/84/36 90/90/36
f 91/91/36 92/92/36 93/93/36
f 84/84/36 81/81/36 85/85/36
f 94/94/36 95/95/36 96/96/36
f 94/94/36 97/97/36 98/98/36
f 81/81/36 99/99/36 87/87/36
f 81/81/36 100/100/36 101/101/36
f 90/90/36 89/89/36 81/81/36
f 86/86/36 91/102/36 84/84/36
f 98/98/36 95/95/36 94/94/36
f 102/103/36 103/104/36 104/105/36
f 102/103/36 105/106/36 106/107/36
f 101/101/36 99/99/36 81/81/36
f 93/108/36 84/84/36 91/102/36
f 96/109/36 107/110/36 94/111/36
f 104/105/36 108/112/36 102/103/36
f 102/103/36 109/113/36 110/114/36
f 102/103/36 111/115/36 112/116/36
f 102/103/36 113/117/36 105/106/36
f 83/83/36 100/100/36 81/81/36
f 114/118/36 115/119/36 116/120/36
f 108/112/36 97/97/36 102/103/36
f 110/114/36 117/121/36 102/103/36
f 106/107/36 111/115/36 102/103/36
f 116/120/36 81/81/36 114/118/36
f 117/121/36 103/104/36 102/103/36
f 102/103/36 118/122/36 113/117/36
f 114/118/36 119/123/36 115/119/36
f 112/116/36 109/113/36 102/103/36
f 114/118/36 120/124/36 119/123/36
f 121/125/36 122/126/36 123/127/36
f 94/94/36 102/103/36 97/97/36
f 88/88/36 114/118/36 81/81/36
f 121/125/36 124/128/36 122/126/36
f 102/103/36 125/129/36 118/122/36
f 126/130/36 127/131/36 120/124/36
f 126/130/36 128/132/36 129/133/36
f 126/130/36 130/134/36 131/135/36
f 123/127/36 126/130/36 121/125/36
f 121/125/36 132/136/36 133/137/36
f 134/138/36 121/125/36 118/122/36
f 126/130/36 135/139/36 127/131/36
f 129/133/36 136/140/36 126/130/36
f 123/127/36 130/134/36 126/130/36
f 121/125/36 137/141/36 138/142/36
f 121/125/36 139/143/36 140/144/36
f 121/125/36 141/145/36 132/136/36
f 125/129/36 134/138/36 118/122/36
f 126/130/36 142/146/36 135/139/36
f 131/135/36 128/132/36 126/130/36
f 140/144/36 137/141/36 121/125/36
f 134/138/36 141/145/36 121/125/36
f 136/140/36 142/146/36 126/130/36
f 133/137/36 139/143/36 121/125/36
f 138/142/36 124/128/36 121/125/36
f 114/118/36 126/130/36 120/124/36
f 143/147/37 144/148/37 145/149/37
f 143/150/37 146/151/37 147/152/37
f 148/153/37 149/154/37 150/155/37
f 151/156/37 152/157/37 153/158/37
f 154/159/37 155/160/37 156/161/37
f 147/162/37 144/163/37 143/164/37
f 157/165/37 154/159/37 158/166/37
f 148/153/37 159/167/37 149/154/37
f 159/167/37 148/153/37 160/168/37
f 151/156/37 161/169/37 162/170/37
f 153/158/37 163/171/37 151/156/37
f 154/159/37 164/172/37 165/173/37
f 154/159/37 166/174/37 167/175/37
f 154/159/37 168/176/37 169/177/37
f 154/159/37 157/165/37 155/160/37
f 158/166/37 143/147/37 157/165/37
f 160/178/37 170/179/37 159/180/37
f 163/171/37 161/169/37 151/156/37
f 151/156/37 171/181/37 172/182/37
f 151/156/37 173/183/37 174/184/37
f 167/175/37 164/172/37 154/159/37
f 154/159/37 175/185/37 176/186/37
f 154/159/37 177/187/37 168/176/37
f 145/149/37 157/165/37 143/147/37
f 162/170/37 148/153/37 151/156/37
f 174/184/37 171/181/37 151/156/37
f 176/186/37 166/174/37 154/159/37
f 156/161/37 177/187/37 154/159/37
f 172/182/37 152/157/37 151/156/37
f 169/177/37 175/185/37 154/159/37
f 178/188/37 151/156/37 179/189/37
f 151/156/37 178/188/37 173/183/37
f 180/190/37 181/191/37 154/159/37
f 150/155/37 151/156/37 148/153/37
f 165/173/37 180/190/37 154/159/37
f 182/192/37 183/193/37 184/194/37
f 182/192/37 185/195/37 186/196/37
f 179/189/37 187/197/37 178/188/37
f 188/198/37 189/199/37 181/191/37
f 188/198/37 190/200/37 191/201/37
f 188/198/37 192/202/37 193/203/37
f 182/192/37 194/204/37 183/193/37
f 182/192/37 195/205/37 196/206/37
f 182/192/37 197/207/37 185/195/37
f 187/197/37 198/208/37 178/188/37
f 188/198/37 199/209/37 189/199/37
f 188/198/37 200/210/37 201/211/37
f 193/203/37 190/200/37 188/198/37
f 184/194/37 188/198/37 182/192/37
f 186/196/37 195/205/37 182/192/37
f 182/192/37 202/212/37 203/213/37
f 204/214/37 182/192/37 178/188/37
f 201/211/37 199/209/37 188/198/37
f 184/194/37 192/202/37 188/198/37
f 203/213/37 197/207/37 182/192/37
f 198/208/37 204/214/37 178/188/37
f 191/201/37 200/210/37 188/198/37
f 204/214/37 202/212/37 182/192/37
f 196/206/37 194/204/37 182/192/37
f 180/190/37 188/198/37 181/191/37
f 205/215/38 206/216/38 207/217/38
f 207/217/38 208/218/38 205/215/38
f 209/219/39 210/220/40 211/221/40
f 212/222/41 209/219/39 213/223/39
f 214/224/42 212/222/41 215/225/41
f 216/226/43 214/224/42 217/227/42
f 218/228/44 216/226/43 219/229/43
f 220/230/45 218/228/44 221/231/44
f 222/232/46 220/230/45 223/233/45
f 224/234/47 222/232/46 225/235/46
f 226/236/48 224/234/47 227/237/47
f 227/237/47 228/238/48 226/236/48
f 225/235/46 227/237/47 224/234/47
f 223/233/45 225/235/46 222/232/46
f 221/231/44 223/233/45 220/230/45
f 219/229/43 221/231/44 218/228/44
f 217/227/42 219/229/43 216/226/43
f 215/225/41 217/227/42 214/224/42
f 213/223/39 215/225/41 212/222/41
f 211/221/40 213/223/39 209/219/39
f 229/239/49 230/240/49 231/241/50
f 232/242/50 231/241/50 233/243/51
f 234/244/51 233/243/51 235/245/52
f 236/246/52 235/245/52 237/247/53
f 238/248/53 237/247/53 239/249/54
f 240/250/54 239/249/54 241/251/55
f 242/252/55 241/251/55 243/253/56
f 244/254/56 243/253/56 245/255/57
f 246/256/57 245/255/57 247/257/58
f 248/258/58 247/257/58 249/259/59
f 250/260/59 249/259/59 251/261/60
f 252/262/60 251/261/60 253/263/61
f 254/264/61 253/263/61 255/265/62
f 256/266/62 255/265/62 257/267/63
f 258/268/63 257/267/63 259/269/64
f 260/270/64 259/269/64 261/271/65
f 262/272/65 261/271/65 263/273/66
f 264/274/66 263/273/66 265/275/67
f 266/276/67 265/275/67 267/277/68
f 267/277/68 268/278/68 266/276/67
f 265/275/67 266/276/67 264/274/66
f 263/273/66 264/274/66 262/272/65
f 261/271/65 262/272/65 260/270/64
f 259/269/64 260/270/64 258/268/63
f 257/267/63 258/268/63 256/266/62
f 255/265/62 256/266/62 254/264/61
f 253/263/61 254/264/61 252/262/60
f 251/261/60 252/262/60 250/260/59
f 249/259/59 250/260/59 248/258/58
f 247/257/58 248/258/58 246/256/57
f 245/255/57 246/256/57 244/254/56
f 243/253/56 244/254/56 242/252/55
f 241/251/55 242/252/55 240/250/54
f 239/249/54 240/250/54 238/248/53
f 237/247/53 238/248/53 236/246/52
f 235/245/52 236/246/52 234/244/51
f 233/243/51 234/244/51 232/242/50
f 231/241/50 232/242/50 229/239/49
