# Blender v2.79 (sub 7) OBJ File: 'gokart.blend'
# www.blender.org
mtllib gokart_master.mtl
v -1.546875 0.000000 -0.000000
v -1.546875 0.000000 0.412500
v -1.650000 0.000000 0.412499
v -1.649997 0.000000 -0.000001
v -1.546873 0.084201 0.000001
v -1.546876 0.084201 0.412502
v -1.650000 0.084201 0.412499
v -1.650000 0.084201 -0.000000
v -1.031251 0.000000 -0.000000
v -1.031251 0.000000 0.412500
v -1.134376 0.000000 0.412499
v -1.134373 0.000000 -0.000001
v -1.031249 0.084201 0.000001
v -1.031252 0.084201 0.412502
v -1.134376 0.084201 0.412499
v -1.134376 0.084201 -0.000000
v -1.546875 -0.042101 -0.000000
v -1.546875 -0.042101 0.412500
v -1.649997 -0.042101 -0.000001
v -1.650000 -0.042101 0.412499
v -1.031251 -0.042101 -0.000000
v -1.031251 -0.042101 0.412500
v -1.134373 -0.042101 -0.000001
v -1.134376 -0.042101 0.412499
v -1.340625 0.056134 0.412500
v -1.419553 0.056134 0.396800
v -1.486466 0.056134 0.352091
v -1.531175 0.056134 0.285179
v -1.546875 0.056134 0.206250
v -1.531175 0.056134 0.127321
v -1.486466 0.056134 0.060409
v -1.261697 0.056134 0.015700
v -1.419553 0.056134 0.015700
v -1.194784 0.056134 0.060409
v -1.150075 0.056134 0.127321
v -1.134375 0.056134 0.206250
v -1.150075 0.056134 0.285179
v -1.194784 0.056134 0.352091
v -1.261696 0.056134 0.396800
v -1.340625 0.056134 0.000000
v -1.340625 0.112267 0.412500
v -1.419553 0.112267 0.396800
v -1.486466 0.112267 0.352091
v -1.531175 0.112267 0.285179
v -1.546875 0.112267 0.206250
v -1.531175 0.112267 0.127321
v -1.486466 0.112267 0.060409
v -1.261697 0.112267 0.015700
v -1.419553 0.112267 0.015700
v -1.340625 0.112267 0.000000
v -1.194784 0.112267 0.060409
v -1.150075 0.112267 0.127321
v -1.134375 0.112267 0.206250
v -1.150075 0.112267 0.285179
v -1.194784 0.112267 0.352091
v -1.261696 0.112267 0.396800
v -1.340625 -0.000000 0.020625
v -1.411661 -0.000000 0.034755
v -1.471882 -0.000000 0.074993
v -1.512120 -0.000000 0.135214
v -1.526250 -0.000000 0.206250
v -1.512120 -0.000000 0.277286
v -1.471882 -0.000000 0.337507
v -1.411661 -0.000000 0.377745
v -1.340625 -0.000000 0.391875
v -1.269589 -0.000000 0.377745
v -1.209368 -0.000000 0.337507
v -1.169130 -0.000000 0.277286
v -1.155000 -0.000000 0.206250
v -1.169130 -0.000000 0.135214
v -1.209368 -0.000000 0.074993
v -1.269589 -0.000000 0.034755
v -1.340625 -0.000000 0.103125
v -1.380089 -0.000000 0.110975
v -1.413545 -0.000000 0.133330
v -1.435900 -0.000000 0.166786
v -1.443750 -0.000000 0.206250
v -1.435900 -0.000000 0.245714
v -1.413545 -0.000000 0.279170
v -1.380089 -0.000000 0.301525
v -1.340625 -0.000000 0.309375
v -1.301161 -0.000000 0.301525
v -1.267704 -0.000000 0.279170
v -1.245350 -0.000000 0.245714
v -1.237500 -0.000000 0.206250
v -1.245350 -0.000000 0.166786
v -1.267704 -0.000000 0.133330
v -1.301161 -0.000000 0.110975
v -1.411661 0.168402 0.034755
v -1.340625 0.168402 0.020625
v -1.471882 0.168402 0.074993
v -1.512120 0.168402 0.135214
v -1.526250 0.168402 0.206250
v -1.512120 0.168402 0.277286
v -1.471882 0.168402 0.337507
v -1.411661 0.168402 0.377745
v -1.340625 0.168402 0.391875
v -1.269589 0.168402 0.377745
v -1.209368 0.168402 0.337507
v -1.169130 0.168402 0.277286
v -1.155000 0.168402 0.206250
v -1.169130 0.168402 0.135214
v -1.209368 0.168402 0.074993
v -1.269589 0.168402 0.034755
v -1.380089 0.168402 0.110975
v -1.340625 0.168402 0.103125
v -1.413545 0.168402 0.133330
v -1.435900 0.168402 0.166786
v -1.443750 0.168402 0.206250
v -1.435900 0.168402 0.245714
v -1.413545 0.168402 0.279170
v -1.380089 0.168402 0.301525
v -1.340625 0.168402 0.309375
v -1.301161 0.168402 0.301525
v -1.267704 0.168402 0.279170
v -1.245350 0.168402 0.245714
v -1.237500 0.168402 0.206250
v -1.245350 0.168402 0.166786
v -1.267704 0.168402 0.133330
v -1.301161 0.168402 0.110975
v 1.546875 0.000000 -0.000000
v 1.546875 0.000000 0.412500
v 1.650000 0.000000 0.412499
v 1.649997 0.000000 -0.000001
v 1.546873 0.084201 0.000001
v 1.546876 0.084201 0.412502
v 1.650000 0.084201 0.412499
v 1.650000 0.084201 -0.000000
v 1.031251 0.000000 -0.000000
v 1.031251 0.000000 0.412500
v 1.134376 0.000000 0.412499
v 1.134373 0.000000 -0.000001
v 1.031249 0.084201 0.000001
v 1.031252 0.084201 0.412502
v 1.134376 0.084201 0.412499
v 1.134376 0.084201 -0.000000
v 0.000000 0.000000 -0.000000
v 0.000000 0.000000 0.412500
v 1.546875 -0.042101 -0.000000
v 1.546875 -0.042101 0.412500
v 1.649997 -0.042101 -0.000001
v 1.650000 -0.042101 0.412499
v 1.031251 -0.042101 -0.000000
v 1.031251 -0.042101 0.412500
v 1.134373 -0.042101 -0.000001
v 1.134376 -0.042101 0.412499
v 0.000000 -0.042101 -0.000000
v 0.000000 -0.042101 0.412500
v 1.340625 0.056134 0.412500
v 1.419553 0.056134 0.396800
v 1.486466 0.056134 0.352091
v 1.531175 0.056134 0.285179
v 1.546875 0.056134 0.206250
v 1.531175 0.056134 0.127321
v 1.486466 0.056134 0.060409
v 1.261697 0.056134 0.015700
v 1.419553 0.056134 0.015700
v 1.194784 0.056134 0.060409
v 1.150075 0.056134 0.127321
v 1.134375 0.056134 0.206250
v 1.150075 0.056134 0.285179
v 1.194784 0.056134 0.352091
v 1.261696 0.056134 0.396800
v 1.340625 0.056134 0.000000
v 1.340625 0.112267 0.412500
v 1.419553 0.112267 0.396800
v 1.486466 0.112267 0.352091
v 1.531175 0.112267 0.285179
v 1.546875 0.112267 0.206250
v 1.531175 0.112267 0.127321
v 1.486466 0.112267 0.060409
v 1.261697 0.112267 0.015700
v 1.419553 0.112267 0.015700
v 1.340625 0.112267 0.000000
v 1.194784 0.112267 0.060409
v 1.150075 0.112267 0.127321
v 1.134375 0.112267 0.206250
v 1.150075 0.112267 0.285179
v 1.194784 0.112267 0.352091
v 1.261696 0.112267 0.396800
v 1.340625 -0.000000 0.020625
v 1.411661 -0.000000 0.034755
v 1.471882 -0.000000 0.074993
v 1.512120 -0.000000 0.135214
v 1.526250 -0.000000 0.206250
v 1.512120 -0.000000 0.277286
v 1.471882 -0.000000 0.337507
v 1.411661 -0.000000 0.377745
v 1.340625 -0.000000 0.391875
v 1.269589 -0.000000 0.377745
v 1.209368 -0.000000 0.337507
v 1.169130 -0.000000 0.277286
v 1.155000 -0.000000 0.206250
v 1.169130 -0.000000 0.135214
v 1.209368 -0.000000 0.074993
v 1.269589 -0.000000 0.034755
v 1.340625 -0.000000 0.103125
v 1.380089 -0.000000 0.110975
v 1.413545 -0.000000 0.133330
v 1.435900 -0.000000 0.166786
v 1.443750 -0.000000 0.206250
v 1.435900 -0.000000 0.245714
v 1.413545 -0.000000 0.279170
v 1.380089 -0.000000 0.301525
v 1.340625 -0.000000 0.309375
v 1.301161 -0.000000 0.301525
v 1.267704 -0.000000 0.279170
v 1.245350 -0.000000 0.245714
v 1.237500 -0.000000 0.206250
v 1.245350 -0.000000 0.166786
v 1.267704 -0.000000 0.133330
v 1.301161 -0.000000 0.110975
v 1.411661 0.168402 0.034755
v 1.340625 0.168402 0.020625
v 1.471882 0.168402 0.074993
v 1.512120 0.168402 0.135214
v 1.526250 0.168402 0.206250
v 1.512120 0.168402 0.277286
v 1.471882 0.168402 0.337507
v 1.411661 0.168402 0.377745
v 1.340625 0.168402 0.391875
v 1.269589 0.168402 0.377745
v 1.209368 0.168402 0.337507
v 1.169130 0.168402 0.277286
v 1.155000 0.168402 0.206250
v 1.169130 0.168402 0.135214
v 1.209368 0.168402 0.074993
v 1.269589 0.168402 0.034755
v 1.380089 0.168402 0.110975
v 1.340625 0.168402 0.103125
v 1.413545 0.168402 0.133330
v 1.435900 0.168402 0.166786
v 1.443750 0.168402 0.206250
v 1.435900 0.168402 0.245714
v 1.413545 0.168402 0.279170
v 1.380089 0.168402 0.301525
v 1.340625 0.168402 0.309375
v 1.301161 0.168402 0.301525
v 1.267704 0.168402 0.279170
v 1.245350 0.168402 0.245714
v 1.237500 0.168402 0.206250
v 1.245350 0.168402 0.166786
v 1.267704 0.168402 0.133330
v 1.301161 0.168402 0.110975
vn 0.6966 -0.1715 0.6966
vn 0.3592 -0.3449 0.8672
vn 0.6637 -0.3449 0.6637
vn 0.9852 0.1715 -0.0000
vn 0.9102 -0.1715 0.3770
vn 0.9852 -0.1715 -0.0000
vn 0.9102 0.1715 -0.3770
vn 0.9102 -0.1715 -0.3770
vn 0.6966 0.1715 -0.6966
vn 0.6966 -0.1715 -0.6966
vn -0.3770 0.1715 -0.9102
vn 0.0000 -0.1715 -0.9852
vn -0.3770 -0.1715 -0.9102
vn 0.3770 0.1715 -0.9102
vn 0.3770 -0.1715 -0.9102
vn -0.6966 0.1715 -0.6966
vn -0.6966 -0.1715 -0.6966
vn 0.0000 0.1715 -0.9852
vn -0.9102 0.1715 -0.3770
vn -0.9102 -0.1715 -0.3770
vn -0.9852 0.1715 -0.0000
vn -0.9852 -0.1715 0.0000
vn -0.9102 0.1715 0.3770
vn -0.9102 -0.1715 0.3770
vn -0.6966 0.1715 0.6966
vn -0.6966 -0.1715 0.6966
vn -0.3770 0.1715 0.9102
vn -0.3770 -0.1715 0.9102
vn -0.0000 0.1715 0.9852
vn -0.0000 -0.1715 0.9852
vn 0.9102 0.1715 0.3770
vn 0.3770 0.1715 0.9102
vn 0.3770 -0.1715 0.9102
vn 0.6966 0.1715 0.6966
vn -0.0000 -0.3449 0.9386
vn 0.0000 -1.0000 0.0000
vn 0.0000 1.0000 0.0000
vn 0.7071 0.0000 -0.7071
vn 0.3827 0.0000 -0.9239
vn 0.3592 0.3449 0.8672
vn -0.0000 0.0000 -1.0000
vn 0.8672 0.3449 0.3592
vn -0.3827 0.0000 -0.9239
vn 0.9386 0.3449 -0.0000
vn -0.7071 0.0000 -0.7071
vn 0.8672 0.3449 -0.3592
vn -0.9239 0.0000 -0.3827
vn 0.6637 0.3449 -0.6637
vn 0.0000 0.3449 -0.9386
vn -1.0000 0.0000 0.0000
vn -0.3592 0.3449 -0.8672
vn -0.9239 0.0000 0.3827
vn -0.8672 0.3449 -0.3592
vn -0.7071 0.0000 0.7071
vn -0.0000 0.0000 1.0000
vn 0.3827 0.0000 0.9239
vn -0.9386 0.3449 0.0000
vn -0.3827 0.0000 0.9239
vn 0.7071 0.0000 0.7071
vn -0.8672 0.3449 0.3592
vn 0.9239 0.0000 0.3827
vn 1.0000 0.0000 0.0000
vn -0.3592 0.3449 0.8672
vn 0.9239 0.0000 -0.3827
vn -0.0000 0.3449 0.9386
vn 0.8672 -0.3449 0.3592
vn -0.3592 -0.3449 0.8672
vn -0.6637 -0.3449 0.6637
vn -0.8672 -0.3449 0.3592
vn -0.9386 -0.3449 -0.0000
vn -0.8672 -0.3449 -0.3592
vn -0.6637 -0.3449 -0.6637
vn 0.0000 -0.3449 -0.9386
vn 0.3592 -0.3449 -0.8672
vn -0.3592 -0.3449 -0.8672
vn 0.6637 -0.3449 -0.6637
vn 0.8672 -0.3449 -0.3592
vn 0.9386 -0.3449 -0.0000
vn -0.6637 0.3449 0.6637
vn -0.6637 0.3449 -0.6637
vn 0.3592 0.3449 -0.8672
vn 0.6637 0.3449 0.6637
usemtl Tyre_Greyscale
s 1
f 38//1 66//2 67//3
f 53//4 37//5 36//6
f 52//7 36//6 35//8
f 51//9 35//8 34//10
f 49//11 40//12 33//13
f 48//14 34//10 32//15
f 47//16 33//13 31//17
f 50//18 32//15 40//12
f 46//19 31//17 30//20
f 45//21 30//20 29//22
f 44//23 29//22 28//24
f 43//25 28//24 27//26
f 42//27 27//26 26//28
f 41//29 26//28 25//30
f 54//31 38//1 37//5
f 56//32 25//30 39//33
f 55//34 39//33 38//1
f 39//33 65//35 66//2
f 60//36 77//36 61//36
f 69//36 84//36 85//36
f 61//36 78//36 62//36
f 70//36 85//36 86//36
f 63//36 78//36 79//36
f 70//36 87//36 71//36
f 63//36 80//36 64//36
f 72//36 87//36 88//36
f 65//36 80//36 81//36
f 57//36 74//36 58//36
f 72//36 73//36 57//36
f 65//36 82//36 66//36
f 59//36 74//36 75//36
f 66//36 83//36 67//36
f 59//36 76//36 60//36
f 68//36 83//36 84//36
f 109//37 92//37 93//37
f 101//37 116//37 100//37
f 110//37 93//37 94//37
f 102//37 117//37 101//37
f 95//37 110//37 94//37
f 119//37 102//37 103//37
f 112//37 95//37 96//37
f 104//37 119//37 103//37
f 97//37 112//37 96//37
f 105//37 90//37 89//37
f 106//37 104//37 90//37
f 114//37 97//37 98//37
f 91//37 105//37 89//37
f 115//37 98//37 99//37
f 108//37 91//37 92//37
f 100//37 115//37 99//37
f 111//38 80//39 79//38
f 55//34 98//40 56//32
f 112//39 81//41 80//39
f 100//42 55//34 54//31
f 113//41 82//43 81//41
f 101//44 54//31 53//4
f 114//43 83//45 82//43
f 102//46 53//4 52//7
f 115//45 84//47 83//45
f 103//48 52//7 51//9
f 49//11 90//49 50//18
f 116//47 85//50 84//47
f 48//14 103//48 51//9
f 47//16 89//51 49//11
f 117//50 86//52 85//50
f 90//49 48//14 50//18
f 92//53 47//16 46//19
f 118//52 87//54 86//52
f 106//55 74//56 73//55
f 93//57 46//19 45//21
f 119//54 88//58 87//54
f 105//56 75//59 74//56
f 94//60 45//21 44//23
f 120//58 73//55 88//58
f 107//59 76//61 75//59
f 43//25 94//60 44//23
f 108//61 77//62 76//61
f 96//63 43//25 42//27
f 109//62 78//64 77//62
f 97//65 42//27 41//29
f 110//64 79//38 78//64
f 56//32 97//65 41//29
f 68//66 38//1 67//3
f 65//35 26//28 64//67
f 64//67 27//26 63//68
f 63//68 28//24 62//69
f 28//24 61//70 62//69
f 61//70 30//20 60//71
f 60//71 31//17 59//72
f 57//73 32//15 72//74
f 31//17 58//75 59//72
f 32//15 71//76 72//74
f 58//75 40//12 57//73
f 34//10 70//77 71//76
f 35//8 69//78 70//77
f 69//78 37//5 68//66
f 190//67 162//26 191//68
f 161//24 177//21 160//22
f 160//22 176//19 159//20
f 159//20 175//16 158//17
f 164//12 173//14 157//15
f 158//17 172//11 156//13
f 157//15 171//9 155//10
f 156//13 174//18 164//12
f 155//10 170//7 154//8
f 154//8 169//4 153//6
f 153//6 168//31 152//5
f 152//5 167//34 151//1
f 151//1 166//32 150//33
f 150//33 165//29 149//30
f 162//26 178//23 161//24
f 149//30 180//27 163//28
f 163//28 179//25 162//26
f 189//35 163//28 190//67
f 201//36 184//36 185//36
f 193//36 208//36 192//36
f 202//36 185//36 186//36
f 194//36 209//36 193//36
f 187//36 202//36 186//36
f 211//36 194//36 195//36
f 204//36 187//36 188//36
f 196//36 211//36 195//36
f 189//36 204//36 188//36
f 198//36 181//36 182//36
f 197//36 196//36 181//36
f 206//36 189//36 190//36
f 183//36 198//36 182//36
f 207//36 190//36 191//36
f 200//36 183//36 184//36
f 192//36 207//36 191//36
f 216//37 233//37 217//37
f 225//37 240//37 241//37
f 217//37 234//37 218//37
f 226//37 241//37 242//37
f 219//37 234//37 235//37
f 226//37 243//37 227//37
f 219//37 236//37 220//37
f 228//37 243//37 244//37
f 221//37 236//37 237//37
f 214//37 229//37 213//37
f 228//37 230//37 214//37
f 221//37 238//37 222//37
f 215//37 229//37 231//37
f 222//37 239//37 223//37
f 215//37 232//37 216//37
f 224//37 239//37 240//37
f 204//43 235//45 203//45
f 179//25 222//63 223//79
f 205//41 236//43 204//43
f 179//25 224//60 178//23
f 206//39 237//41 205//41
f 178//23 225//57 177//21
f 207//38 238//39 206//39
f 177//21 226//53 176//19
f 208//64 239//38 207//38
f 176//19 227//80 175//16
f 174//18 213//81 173//14
f 209//62 240//64 208//64
f 172//11 227//80 228//51
f 171//9 213//81 215//48
f 210//61 241//62 209//62
f 172//11 214//49 174//18
f 171//9 216//46 170//7
f 211//59 242//61 210//61
f 198//58 230//55 197//55
f 170//7 217//44 169//4
f 212//56 243//59 211//59
f 199//54 229//58 198//58
f 169//4 218//42 168//31
f 197//55 244//56 212//56
f 200//52 231//54 199//54
f 167//34 218//42 219//82
f 201//50 232//52 200//52
f 167//34 220//40 166//32
f 202//47 233//50 201//50
f 165//29 220//40 221//65
f 203//45 234//47 202//47
f 180//27 221//65 222//63
f 192//69 162//26 161//24
f 188//2 149//30 189//35
f 188//2 151//1 150//33
f 186//66 151//1 187//3
f 185//78 152//5 186//66
f 185//78 154//8 153//6
f 184//77 155//10 154//8
f 181//73 156//13 164//12
f 182//74 155//10 183//76
f 195//72 156//13 196//75
f 181//73 157//15 182//74
f 194//71 158//17 195//72
f 194//71 160//22 159//20
f 193//70 161//24 160//22
f 38//1 39//33 66//2
f 53//4 54//31 37//5
f 52//7 53//4 36//6
f 51//9 52//7 35//8
f 49//11 50//18 40//12
f 48//14 51//9 34//10
f 47//16 49//11 33//13
f 50//18 48//14 32//15
f 46//19 47//16 31//17
f 45//21 46//19 30//20
f 44//23 45//21 29//22
f 43//25 44//23 28//24
f 42//27 43//25 27//26
f 41//29 42//27 26//28
f 54//31 55//34 38//1
f 56//32 41//29 25//30
f 55//34 56//32 39//33
f 39//33 25//30 65//35
f 60//36 76//36 77//36
f 69//36 68//36 84//36
f 61//36 77//36 78//36
f 70//36 69//36 85//36
f 63//36 62//36 78//36
f 70//36 86//36 87//36
f 63//36 79//36 80//36
f 72//36 71//36 87//36
f 65//36 64//36 80//36
f 57//36 73//36 74//36
f 72//36 88//36 73//36
f 65//36 81//36 82//36
f 59//36 58//36 74//36
f 66//36 82//36 83//36
f 59//36 75//36 76//36
f 68//36 67//36 83//36
f 109//37 108//37 92//37
f 101//37 117//37 116//37
f 110//37 109//37 93//37
f 102//37 118//37 117//37
f 95//37 111//37 110//37
f 119//37 118//37 102//37
f 112//37 111//37 95//37
f 104//37 120//37 119//37
f 97//37 113//37 112//37
f 105//37 106//37 90//37
f 106//37 120//37 104//37
f 114//37 113//37 97//37
f 91//37 107//37 105//37
f 115//37 114//37 98//37
f 108//37 107//37 91//37
f 100//37 116//37 115//37
f 111//38 112//39 80//39
f 55//34 99//82 98//40
f 112//39 113//41 81//41
f 100//42 99//82 55//34
f 113//41 114//43 82//43
f 101//44 100//42 54//31
f 114//43 115//45 83//45
f 102//46 101//44 53//4
f 115//45 116//47 84//47
f 103//48 102//46 52//7
f 49//11 89//51 90//49
f 116//47 117//50 85//50
f 48//14 104//81 103//48
f 47//16 91//80 89//51
f 117//50 118//52 86//52
f 90//49 104//81 48//14
f 92//53 91//80 47//16
f 118//52 119//54 87//54
f 106//55 105//56 74//56
f 93//57 92//53 46//19
f 119//54 120//58 88//58
f 105//56 107//59 75//59
f 94//60 93//57 45//21
f 120//58 106//55 73//55
f 107//59 108//61 76//61
f 43//25 95//79 94//60
f 108//61 109//62 77//62
f 96//63 95//79 43//25
f 109//62 110//64 78//64
f 97//65 96//63 42//27
f 110//64 111//38 79//38
f 56//32 98//40 97//65
f 68//66 37//5 38//1
f 65//35 25//30 26//28
f 64//67 26//28 27//26
f 63//68 27//26 28//24
f 28//24 29//22 61//70
f 61//70 29//22 30//20
f 60//71 30//20 31//17
f 57//73 40//12 32//15
f 31//17 33//13 58//75
f 32//15 34//10 71//76
f 58//75 33//13 40//12
f 34//10 35//8 70//77
f 35//8 36//6 69//78
f 69//78 36//6 37//5
f 190//67 163//28 162//26
f 161//24 178//23 177//21
f 160//22 177//21 176//19
f 159//20 176//19 175//16
f 164//12 174//18 173//14
f 158//17 175//16 172//11
f 157//15 173//14 171//9
f 156//13 172//11 174//18
f 155//10 171//9 170//7
f 154//8 170//7 169//4
f 153//6 169//4 168//31
f 152//5 168//31 167//34
f 151//1 167//34 166//32
f 150//33 166//32 165//29
f 162//26 179//25 178//23
f 149//30 165//29 180//27
f 163//28 180//27 179//25
f 189//35 149//30 163//28
f 201//36 200//36 184//36
f 193//36 209//36 208//36
f 202//36 201//36 185//36
f 194//36 210//36 209//36
f 187//36 203//36 202//36
f 211//36 210//36 194//36
f 204//36 203//36 187//36
f 196//36 212//36 211//36
f 189//36 205//36 204//36
f 198//36 197//36 181//36
f 197//36 212//36 196//36
f 206//36 205//36 189//36
f 183//36 199//36 198//36
f 207//36 206//36 190//36
f 200//36 199//36 183//36
f 192//36 208//36 207//36
f 216//37 232//37 233//37
f 225//37 224//37 240//37
f 217//37 233//37 234//37
f 226//37 225//37 241//37
f 219//37 218//37 234//37
f 226//37 242//37 243//37
f 219//37 235//37 236//37
f 228//37 227//37 243//37
f 221//37 220//37 236//37
f 214//37 230//37 229//37
f 228//37 244//37 230//37
f 221//37 237//37 238//37
f 215//37 213//37 229//37
f 222//37 238//37 239//37
f 215//37 231//37 232//37
f 224//37 223//37 239//37
f 204//43 236//43 235//45
f 179//25 180//27 222//63
f 205//41 237//41 236//43
f 179//25 223//79 224//60
f 206//39 238//39 237//41
f 178//23 224//60 225//57
f 207//38 239//38 238//39
f 177//21 225//57 226//53
f 208//64 240//64 239//38
f 176//19 226//53 227//80
f 174//18 214//49 213//81
f 209//62 241//62 240//64
f 172//11 175//16 227//80
f 171//9 173//14 213//81
f 210//61 242//61 241//62
f 172//11 228//51 214//49
f 171//9 215//48 216//46
f 211//59 243//59 242//61
f 198//58 229//58 230//55
f 170//7 216//46 217//44
f 212//56 244//56 243//59
f 199//54 231//54 229//58
f 169//4 217//44 218//42
f 197//55 230//55 244//56
f 200//52 232//52 231//54
f 167//34 168//31 218//42
f 201//50 233//50 232//52
f 167//34 219//82 220//40
f 202//47 234//47 233//50
f 165//29 166//32 220//40
f 203//45 235//45 234//47
f 180//27 165//29 221//65
f 192//69 191//68 162//26
f 188//2 150//33 149//30
f 188//2 187//3 151//1
f 186//66 152//5 151//1
f 185//78 153//6 152//5
f 185//78 184//77 154//8
f 184//77 183//76 155//10
f 181//73 196//75 156//13
f 182//74 157//15 155//10
f 195//72 158//17 156//13
f 181//73 164//12 157//15
f 194//71 159//20 158//17
f 194//71 193//70 160//22
f 193//70 192//69 161//24
usemtl Border_Remap1
s off
f 5//37 7//37 6//37
f 5//62 2//62 1//62
f 6//55 3//55 2//55
f 3//50 8//50 4//50
f 5//41 4//41 8//41
f 13//37 15//37 14//37
f 13//62 10//62 9//62
f 14//55 11//55 10//55
f 11//50 16//50 12//50
f 13//41 12//41 16//41
f 125//37 127//37 128//37
f 122//50 125//50 121//50
f 123//55 126//55 122//55
f 123//62 128//62 127//62
f 125//41 124//41 121//41
f 133//37 135//37 136//37
f 130//50 133//50 129//50
f 131//55 134//55 130//55
f 131//62 136//62 135//62
f 133//41 132//41 129//41
f 5//37 8//37 7//37
f 5//62 6//62 2//62
f 6//55 7//55 3//55
f 3//50 7//50 8//50
f 5//41 1//41 4//41
f 13//37 16//37 15//37
f 13//62 14//62 10//62
f 14//55 15//55 11//55
f 11//50 15//50 16//50
f 13//41 9//41 12//41
f 125//37 126//37 127//37
f 122//50 126//50 125//50
f 123//55 127//55 126//55
f 123//62 124//62 128//62
f 125//41 128//41 124//41
f 133//37 134//37 135//37
f 130//50 134//50 133//50
f 131//55 135//55 134//55
f 131//62 132//62 136//62
f 133//41 136//41 132//41
usemtl Asphalt_Greyscale
f 18//55 11//55 2//55
f 1//41 19//41 4//41
f 22//55 138//55 10//55
f 23//41 1//41 12//41
f 17//36 20//36 19//36
f 21//36 24//36 23//36
f 24//36 17//36 23//36
f 147//36 22//36 21//36
f 11//55 22//55 10//55
f 4//50 20//50 3//50
f 9//41 23//41 12//41
f 3//55 18//55 2//55
f 147//41 9//41 137//41
f 138//37 9//37 10//37
f 1//37 11//37 12//37
f 131//55 140//55 122//55
f 141//41 121//41 124//41
f 138//55 144//55 130//55
f 121//41 145//41 132//41
f 139//36 142//36 140//36
f 143//36 146//36 144//36
f 139//36 146//36 145//36
f 144//36 147//36 143//36
f 144//55 131//55 130//55
f 142//62 124//62 123//62
f 137//50 148//50 138//50
f 145//41 129//41 132//41
f 140//55 123//55 122//55
f 129//41 147//41 137//41
f 129//37 138//37 130//37
f 121//37 131//37 122//37
f 18//55 24//55 11//55
f 1//41 17//41 19//41
f 22//55 148//55 138//55
f 23//41 17//41 1//41
f 17//36 18//36 20//36
f 21//36 22//36 24//36
f 24//36 18//36 17//36
f 147//36 148//36 22//36
f 11//55 24//55 22//55
f 4//50 19//50 20//50
f 9//41 21//41 23//41
f 3//55 20//55 18//55
f 147//41 21//41 9//41
f 138//37 137//37 9//37
f 1//37 2//37 11//37
f 131//55 146//55 140//55
f 141//41 139//41 121//41
f 138//55 148//55 144//55
f 121//41 139//41 145//41
f 139//36 141//36 142//36
f 143//36 145//36 146//36
f 139//36 140//36 146//36
f 144//36 148//36 147//36
f 144//55 146//55 131//55
f 142//62 141//62 124//62
f 137//50 147//50 148//50
f 145//41 143//41 129//41
f 140//55 142//55 123//55
f 129//41 143//41 147//41
f 129//37 137//37 138//37
f 121//37 132//37 131//37
