# Blender v2.79 (sub 0) OBJ File: 'bm.blend'
# www.blender.org
mtllib bm_master.mtl
v 1.102270 0.165341 -0.000000
v 1.102270 1.451323 -0.000000
v -1.102270 0.165341 0.000000
v -1.102270 1.451323 0.000000
v 1.102271 0.165341 1.224745
v 1.102271 1.451323 1.224745
v -1.102270 0.165341 1.224745
v -1.102270 1.451323 1.224745
vn -1.0000 0.0000 0.0000
vn -0.0000 0.0000 -1.0000
vn 0.0000 -1.0000 0.0000
vn 0.0000 1.0000 0.0000
vn 0.0000 0.0000 1.0000
vn 1.0000 0.0000 -0.0000
usemtl Material
s off
f 8//1 3//1 7//1
f 4//2 1//2 3//2
f 7//3 1//3 5//3
f 6//4 4//4 8//4
f 8//5 5//5 6//5
f 2//6 5//6 1//6
f 8//1 4//1 3//1
f 4//2 2//2 1//2
f 7//3 3//3 1//3
f 6//4 2//4 4//4
f 8//5 7//5 5//5
f 2//6 6//6 5//6
