# Blender v2.79 (sub 7) OBJ File: 'alpineslide.blend'
# www.blender.org
mtllib alpine_master.mtl
v 0.220000 -0.170000 0.437500
v 0.220000 -0.140000 0.437500
v 0.220000 -0.170000 0.387500
v 0.220000 -0.140000 0.387500
v 0.250000 -0.170000 0.437500
v 0.250000 -0.140000 0.437500
v 0.250000 -0.170000 0.387500
v 0.250000 -0.140000 0.387500
v 0.220000 -0.010000 0.437500
v 0.220000 -0.010000 0.387500
v 0.250000 -0.020000 0.437500
v 0.250000 -0.020000 0.387500
v 0.225728 0.004793 0.437500
v 0.225728 0.004793 0.387500
v 0.250000 0.010000 0.437500
v 0.250000 0.010000 0.387500
v 0.313504 -0.020000 0.437500
v 0.313504 -0.020000 0.387500
v 0.313504 0.010000 0.437500
v 0.313504 0.010000 0.387500
v 0.313504 -0.025000 0.825000
v 0.313504 -0.025000 -0.000000
v 0.313504 0.025000 0.825000
v 0.313504 0.025000 0.000000
v 0.362992 -0.025000 0.825000
v 0.362992 -0.025000 -0.000000
v 0.362992 0.025000 0.825000
v 0.362992 0.025000 0.000000
v 0.050000 -0.050256 0.825000
v 0.050000 -0.050256 -0.000000
v 0.100000 -0.050256 0.825000
v 0.100000 -0.050256 -0.000000
v 0.050000 -0.069744 0.825000
v 0.050000 -0.069744 -0.000000
v 0.100000 -0.069744 0.825000
v 0.100000 -0.069744 -0.000000
v 0.070000 -0.040000 0.387500
v 0.070000 -0.050000 0.387500
v 0.140000 -0.050000 0.437500
v 0.140000 -0.040000 0.437500
v 0.140000 -0.050000 0.387500
v 0.140000 -0.040000 0.387500
v 0.070000 -0.040000 0.437500
v 0.070000 -0.050000 0.437500
v 0.151146 -0.052455 0.437500
v 0.156145 -0.043794 0.437500
v 0.151145 -0.052454 0.387500
v 0.156145 -0.043794 0.387500
v 0.159730 -0.059998 0.437500
v 0.168390 -0.054998 0.437500
v 0.159730 -0.059998 0.387500
v 0.168390 -0.054998 0.387500
v 0.165309 -0.072599 0.437500
v 0.175309 -0.072599 0.437500
v 0.165309 -0.072599 0.387500
v 0.175309 -0.072599 0.387500
v 0.165309 -0.123738 0.437500
v 0.175309 -0.123738 0.437500
v 0.165309 -0.123737 0.387500
v 0.175309 -0.123737 0.387500
v 0.168583 -0.133007 0.437500
v 0.177243 -0.128007 0.437500
v 0.168583 -0.133007 0.387500
v 0.177243 -0.128007 0.387500
v 0.176662 -0.139901 0.437500
v 0.181662 -0.130343 0.437500
v 0.176662 -0.139901 0.387500
v 0.181661 -0.130343 0.387500
v 0.191660 -0.140050 0.437500
v 0.191659 -0.130000 0.437500
v 0.191659 -0.140050 0.387500
v 0.191659 -0.130000 0.387500
v 0.220000 -0.140050 0.437500
v 0.220000 -0.130000 0.437500
v 0.220000 -0.140050 0.387500
v 0.220000 -0.130000 0.387500
v 0.220000 -0.140000 0.825000
v 0.220000 -0.140000 -0.000000
v 0.235000 -0.140000 0.825000
v 0.235000 -0.140000 -0.000000
v 0.220000 -0.155000 0.825000
v 0.220000 -0.155000 -0.000000
v 0.235000 -0.155000 0.825000
v 0.235000 -0.155000 -0.000000
v 0.000000 -0.140000 0.387500
v 0.000000 -0.170000 0.387500
v -0.220000 -0.170000 0.437500
v -0.220000 -0.140000 0.437500
v -0.220000 -0.170000 0.387500
v -0.220000 -0.140000 0.387500
v 0.000000 -0.140000 0.437500
v 0.000000 -0.170000 0.437500
v -0.250000 -0.170000 0.437500
v -0.250000 -0.140000 0.437500
v -0.250000 -0.170000 0.387500
v -0.250000 -0.140000 0.387500
v -0.220000 -0.010000 0.437500
v -0.220000 -0.010000 0.387500
v -0.250000 -0.020000 0.437500
v -0.250000 -0.020000 0.387500
v -0.225728 0.004793 0.437500
v -0.225728 0.004793 0.387500
v -0.250000 0.010000 0.437500
v -0.250000 0.010000 0.387500
v -0.313504 -0.020000 0.437500
v -0.313504 -0.020000 0.387500
v -0.313504 0.010000 0.437500
v -0.313504 0.010000 0.387500
v -0.313504 -0.025000 0.825000
v -0.313504 -0.025000 -0.000000
v -0.313504 0.025000 0.825000
v -0.313504 0.025000 0.000000
v -0.362992 -0.025000 0.825000
v -0.362992 -0.025000 -0.000000
v -0.362992 0.025000 0.825000
v -0.362992 0.025000 0.000000
v -0.050000 -0.050256 0.825000
v -0.050000 -0.050256 -0.000000
v -0.100000 -0.050256 0.825000
v -0.100000 -0.050256 -0.000000
v -0.050000 -0.069744 0.825000
v -0.050000 -0.069744 -0.000000
v -0.100000 -0.069744 0.825000
v -0.100000 -0.069744 -0.000000
v -0.070000 -0.040000 0.387500
v -0.070000 -0.050000 0.387500
v -0.140000 -0.050000 0.437500
v -0.140000 -0.040000 0.437500
v -0.140000 -0.050000 0.387500
v -0.140000 -0.040000 0.387500
v -0.070000 -0.040000 0.437500
v -0.070000 -0.050000 0.437500
v -0.151146 -0.052455 0.437500
v -0.156145 -0.043794 0.437500
v -0.151145 -0.052454 0.387500
v -0.156145 -0.043794 0.387500
v -0.159730 -0.059998 0.437500
v -0.168390 -0.054998 0.437500
v -0.159730 -0.059998 0.387500
v -0.168390 -0.054998 0.387500
v -0.165309 -0.072599 0.437500
v -0.175309 -0.072599 0.437500
v -0.165309 -0.072599 0.387500
v -0.175309 -0.072599 0.387500
v -0.165309 -0.123738 0.437500
v -0.175309 -0.123738 0.437500
v -0.165309 -0.123737 0.387500
v -0.175309 -0.123737 0.387500
v -0.168583 -0.133007 0.437500
v -0.177243 -0.128007 0.437500
v -0.168583 -0.133007 0.387500
v -0.177243 -0.128007 0.387500
v -0.176662 -0.139901 0.437500
v -0.181662 -0.130343 0.437500
v -0.176662 -0.139901 0.387500
v -0.181661 -0.130343 0.387500
v -0.191660 -0.140050 0.437500
v -0.191659 -0.130000 0.437500
v -0.191659 -0.140050 0.387500
v -0.191659 -0.130000 0.387500
v -0.220000 -0.140050 0.437500
v -0.220000 -0.130000 0.437500
v -0.220000 -0.140050 0.387500
v -0.220000 -0.130000 0.387500
v -0.220000 -0.140000 0.825000
v -0.220000 -0.140000 -0.000000
v -0.235000 -0.140000 0.825000
v -0.235000 -0.140000 -0.000000
v -0.220000 -0.155000 0.825000
v -0.220000 -0.155000 -0.000000
v -0.235000 -0.155000 0.825000
v -0.235000 -0.155000 -0.000000
vn 0.0000 0.0000 -1.0000
vn 0.0000 1.0000 0.0000
vn 0.0000 0.0000 1.0000
vn 0.0000 -1.0000 -0.0000
vn 1.0000 0.0000 -0.0000
vn -0.9830 0.1837 0.0000
vn -1.0000 0.0000 0.0000
vn -0.2098 0.9778 0.0000
vn -0.1055 0.9944 0.0000
vn -0.9325 0.3611 0.0000
vn 0.1152 0.9933 -0.0000
vn -0.1082 -0.9941 0.0000
vn 0.4670 0.8842 -0.0000
vn -0.4518 -0.8921 0.0000
vn -0.8061 -0.5918 0.0000
vn -0.4519 -0.8921 -0.0000
vn 0.8241 0.5664 -0.0000
vn -0.9784 -0.2069 0.0000
vn 0.9825 0.1862 -0.0000
vn 0.9775 0.2110 0.0000
vn -0.9856 -0.1689 -0.0000
vn -0.8242 -0.5662 -0.0000
vn 0.9775 0.2111 -0.0000
vn 0.7283 0.6852 0.0000
vn -0.3506 -0.9365 -0.0000
vn -0.8242 -0.5663 0.0000
vn 0.2241 0.9746 0.0000
vn -0.0171 0.9999 0.0000
vn -0.0050 -1.0000 -0.0000
vn -0.3505 -0.9365 -0.0000
vn -0.0172 0.9999 0.0000
vn 0.9830 0.1837 0.0000
vn 0.2098 0.9778 0.0000
vn 0.1055 0.9944 0.0000
vn 0.9325 0.3611 0.0000
vn -0.1152 0.9933 -0.0000
vn 0.1082 -0.9941 0.0000
vn -0.4670 0.8842 -0.0000
vn 0.4518 -0.8921 0.0000
vn 0.4519 -0.8921 -0.0000
vn 0.8061 -0.5918 0.0000
vn -0.8241 0.5664 -0.0000
vn 0.9784 -0.2069 0.0000
vn -0.9825 0.1862 -0.0000
vn -0.9775 0.2110 0.0000
vn -0.9775 0.2111 -0.0000
vn 0.9856 -0.1689 -0.0000
vn 0.8242 -0.5662 -0.0000
vn -0.7283 0.6852 0.0000
vn 0.8242 -0.5663 0.0000
vn 0.3506 -0.9365 -0.0000
vn -0.2241 0.9746 0.0000
vn 0.0171 0.9999 0.0000
vn 0.0172 0.9999 0.0000
vn 0.3505 -0.9365 -0.0000
vn 0.0050 -1.0000 -0.0000
usemtl Remap1_Edge
s 1
f 4//1 86//1 85//1
f 91//2 4//2 85//2
f 1//3 91//3 92//3
f 3//4 92//4 86//4
f 5//3 2//3 1//3
f 6//5 7//5 8//5
f 11//3 2//3 6//3
f 7//4 1//4 3//4
f 8//1 3//1 4//1
f 14//1 12//1 10//1
f 9//6 4//7 2//7
f 12//5 6//5 8//5
f 4//1 12//1 8//1
f 13//8 16//9 14//8
f 17//3 15//3 11//3
f 11//3 13//3 9//3
f 9//6 14//10 10//6
f 18//4 11//4 12//4
f 20//1 12//1 16//1
f 15//9 20//2 16//9
f 28//1 22//1 24//1
f 36//1 30//1 32//1
f 42//1 38//1 37//1
f 43//2 42//11 37//2
f 39//3 43//3 44//3
f 41//12 44//4 38//4
f 42//1 47//1 41//1
f 45//3 40//3 39//3
f 40//11 48//13 42//11
f 47//14 39//12 41//12
f 49//3 46//3 45//3
f 51//15 45//16 47//14
f 48//1 51//1 47//1
f 46//13 52//17 48//13
f 55//18 49//15 51//15
f 52//1 55//1 51//1
f 50//17 56//19 52//17
f 53//3 50//3 49//3
f 60//1 55//1 56//1
f 54//19 60//20 56//19
f 53//3 58//3 54//3
f 59//21 53//18 55//18
f 61//3 58//3 57//3
f 63//22 57//21 59//21
f 60//1 63//1 59//1
f 58//23 64//24 60//20
f 65//3 62//3 61//3
f 67//25 61//26 63//22
f 64//1 67//1 63//1
f 62//24 68//27 64//24
f 68//1 71//1 67//1
f 66//27 72//28 68//27
f 69//3 66//3 65//3
f 71//29 65//30 67//25
f 70//31 76//2 72//28
f 69//3 74//3 70//3
f 75//4 69//29 71//29
f 76//1 71//1 72//1
f 77//2 80//2 78//2
f 84//4 81//4 82//4
f 84//1 78//1 80//1
f 82//7 77//7 78//7
f 83//5 80//5 79//5
f 86//1 90//1 85//1
f 91//2 90//2 88//2
f 91//3 87//3 92//3
f 92//4 89//4 86//4
f 88//3 93//3 87//3
f 91//5 86//5 85//5
f 95//7 94//7 96//7
f 88//3 99//3 94//3
f 87//4 95//4 89//4
f 89//1 96//1 90//1
f 100//1 102//1 98//1
f 90//5 97//32 88//5
f 94//7 100//7 96//7
f 90//1 100//1 98//1
f 101//33 104//34 103//34
f 103//3 105//3 99//3
f 99//3 101//3 103//3
f 97//32 102//35 101//35
f 99//4 106//4 100//4
f 100//1 108//1 104//1
f 103//34 108//2 107//2
f 110//1 116//1 112//1
f 118//1 124//1 120//1
f 126//1 130//1 125//1
f 131//2 130//36 128//36
f 131//3 127//3 132//3
f 132//4 129//37 126//4
f 130//1 135//1 136//1
f 128//3 133//3 127//3
f 128//36 136//38 134//38
f 127//37 135//39 129//37
f 134//3 137//3 133//3
f 133//40 139//41 135//39
f 136//1 139//1 140//1
f 134//38 140//42 138//42
f 137//41 143//43 139//41
f 140//1 143//1 144//1
f 138//42 144//44 142//44
f 138//3 141//3 137//3
f 143//1 148//1 144//1
f 142//44 148//45 146//46
f 141//3 146//3 145//3
f 141//43 147//47 143//43
f 146//3 149//3 145//3
f 145//47 151//48 147//47
f 148//1 151//1 152//1
f 146//46 152//49 150//49
f 150//3 153//3 149//3
f 149//50 155//51 151//48
f 152//1 155//1 156//1
f 150//49 156//52 154//52
f 156//1 159//1 160//1
f 154//52 160//53 158//54
f 154//3 157//3 153//3
f 153//55 159//56 155//51
f 158//54 164//2 162//2
f 157//3 162//3 161//3
f 157//56 163//4 159//56
f 159//1 164//1 160//1
f 168//2 165//2 166//2
f 169//4 172//4 170//4
f 166//1 172//1 168//1
f 165//5 170//5 166//5
f 168//7 171//7 167//7
f 4//1 3//1 86//1
f 91//2 2//2 4//2
f 1//3 2//3 91//3
f 3//4 1//4 92//4
f 5//3 6//3 2//3
f 6//5 5//5 7//5
f 11//3 9//3 2//3
f 7//4 5//4 1//4
f 8//1 7//1 3//1
f 14//1 16//1 12//1
f 9//6 10//6 4//7
f 12//5 11//5 6//5
f 4//1 10//1 12//1
f 13//8 15//9 16//9
f 17//3 19//3 15//3
f 11//3 15//3 13//3
f 9//6 13//10 14//10
f 18//4 17//4 11//4
f 20//1 18//1 12//1
f 15//9 19//2 20//2
f 28//1 26//1 22//1
f 36//1 34//1 30//1
f 42//1 41//1 38//1
f 43//2 40//11 42//11
f 39//3 40//3 43//3
f 41//12 39//12 44//4
f 42//1 48//1 47//1
f 45//3 46//3 40//3
f 40//11 46//13 48//13
f 47//14 45//16 39//12
f 49//3 50//3 46//3
f 51//15 49//15 45//16
f 48//1 52//1 51//1
f 46//13 50//17 52//17
f 55//18 53//18 49//15
f 52//1 56//1 55//1
f 50//17 54//19 56//19
f 53//3 54//3 50//3
f 60//1 59//1 55//1
f 54//19 58//23 60//20
f 53//3 57//3 58//3
f 59//21 57//21 53//18
f 61//3 62//3 58//3
f 63//22 61//26 57//21
f 60//1 64//1 63//1
f 58//23 62//24 64//24
f 65//3 66//3 62//3
f 67//25 65//30 61//26
f 64//1 68//1 67//1
f 62//24 66//27 68//27
f 68//1 72//1 71//1
f 66//27 70//31 72//28
f 69//3 70//3 66//3
f 71//29 69//29 65//30
f 70//31 74//2 76//2
f 69//3 73//3 74//3
f 75//4 73//4 69//29
f 76//1 75//1 71//1
f 77//2 79//2 80//2
f 84//4 83//4 81//4
f 84//1 82//1 78//1
f 82//7 81//7 77//7
f 83//5 84//5 80//5
f 86//1 89//1 90//1
f 91//2 85//2 90//2
f 91//3 88//3 87//3
f 92//4 87//4 89//4
f 88//3 94//3 93//3
f 91//5 92//5 86//5
f 95//7 93//7 94//7
f 88//3 97//3 99//3
f 87//4 93//4 95//4
f 89//1 95//1 96//1
f 100//1 104//1 102//1
f 90//5 98//32 97//32
f 94//7 99//7 100//7
f 90//1 96//1 100//1
f 101//33 102//33 104//34
f 103//3 107//3 105//3
f 99//3 97//3 101//3
f 97//32 98//32 102//35
f 99//4 105//4 106//4
f 100//1 106//1 108//1
f 103//34 104//34 108//2
f 110//1 114//1 116//1
f 118//1 122//1 124//1
f 126//1 129//1 130//1
f 131//2 125//2 130//36
f 131//3 128//3 127//3
f 132//4 127//37 129//37
f 130//1 129//1 135//1
f 128//3 134//3 133//3
f 128//36 130//36 136//38
f 127//37 133//40 135//39
f 134//3 138//3 137//3
f 133//40 137//41 139//41
f 136//1 135//1 139//1
f 134//38 136//38 140//42
f 137//41 141//43 143//43
f 140//1 139//1 143//1
f 138//42 140//42 144//44
f 138//3 142//3 141//3
f 143//1 147//1 148//1
f 142//44 144//44 148//45
f 141//3 142//3 146//3
f 141//43 145//47 147//47
f 146//3 150//3 149//3
f 145//47 149//50 151//48
f 148//1 147//1 151//1
f 146//46 148//45 152//49
f 150//3 154//3 153//3
f 149//50 153//55 155//51
f 152//1 151//1 155//1
f 150//49 152//49 156//52
f 156//1 155//1 159//1
f 154//52 156//52 160//53
f 154//3 158//3 157//3
f 153//55 157//56 159//56
f 158//54 160//53 164//2
f 157//3 158//3 162//3
f 157//56 161//4 163//4
f 159//1 163//1 164//1
f 168//2 167//2 165//2
f 169//4 171//4 172//4
f 166//1 170//1 172//1
f 165//5 169//5 170//5
f 168//7 172//7 171//7
usemtl Remap2_Edge
f 21//7 24//7 22//7
f 28//5 25//5 26//5
f 26//4 21//4 22//4
f 27//2 24//2 23//2
f 29//2 32//2 30//2
f 36//4 33//4 34//4
f 34//7 29//7 30//7
f 35//5 32//5 31//5
f 112//5 109//5 110//5
f 113//7 116//7 114//7
f 109//4 114//4 110//4
f 112//2 115//2 111//2
f 120//2 117//2 118//2
f 121//4 124//4 122//4
f 117//5 122//5 118//5
f 120//7 123//7 119//7
f 21//7 23//7 24//7
f 28//5 27//5 25//5
f 26//4 25//4 21//4
f 27//2 28//2 24//2
f 29//2 31//2 32//2
f 36//4 35//4 33//4
f 34//7 33//7 29//7
f 35//5 36//5 32//5
f 112//5 111//5 109//5
f 113//7 115//7 116//7
f 109//4 113//4 114//4
f 112//2 116//2 115//2
f 120//2 119//2 117//2
f 121//4 123//4 124//4
f 117//5 121//5 122//5
f 120//7 124//7 123//7
usemtl Remap2_NoBleed_NoAO
f 25//3 23//3 21//3
f 29//3 35//3 31//3
f 111//3 113//3 109//3
f 117//3 123//3 121//3
f 25//3 27//3 23//3
f 29//3 33//3 35//3
f 111//3 115//3 113//3
f 117//3 119//3 123//3
usemtl Remap1_NoBleed_NoAO
f 77//3 83//3 79//3
f 165//3 171//3 169//3
f 77//3 81//3 83//3
f 165//3 167//3 171//3
