# Blender v2.79 (sub 0) OBJ File: 'intamintrackbalanced.blend'
# www.blender.org
mtllib intamin_mask.mtl
v 0.661362 0.128598 -0.000000
v 0.661362 1.451323 -0.000000
v 0.661362 0.128598 1.837117
v 0.661362 1.451323 1.837117
v -0.661362 0.128598 0.000000
v -0.661362 1.451323 0.000000
v -0.661362 0.128598 1.837117
v -0.661362 1.451323 1.837117
v 0.661362 0.128598 0.918559
v 0.661362 1.451323 0.918559
v -0.661362 0.128598 0.918559
v -0.661362 1.451323 0.918559
vn 1.0000 0.0000 -0.0000
vn 0.0000 0.0000 1.0000
vn -1.0000 0.0000 0.0000
vn -0.0000 0.0000 -1.0000
vn 0.0000 -1.0000 0.0000
vn 0.0000 1.0000 0.0000
usemtl Material
s off
f 10//1 3//1 9//1
f 4//2 7//2 3//2
f 12//3 5//3 11//3
f 6//4 1//4 5//4
f 11//5 1//5 9//5
f 10//6 6//6 12//6
f 4//6 12//6 8//6
f 7//5 9//5 3//5
f 8//3 11//3 7//3
f 2//1 9//1 1//1
f 10//1 4//1 3//1
f 4//2 8//2 7//2
f 12//3 6//3 5//3
f 6//4 2//4 1//4
f 11//5 5//5 1//5
f 10//6 2//6 6//6
f 4//6 10//6 12//6
f 7//5 11//5 9//5
f 8//3 12//3 11//3
f 2//1 10//1 9//1
