# Blender v2.79 (sub 7) OBJ File: ''
# www.blender.org
mtllib intamin.mtl
v 0.039315 -0.801412 -0.000000
v -0.185442 -0.397768 0.049507
v 0.039315 -0.801412 0.049507
v -0.047181 -0.849574 -0.000000
v -0.271937 -0.445930 0.049507
v -0.271937 -0.445930 -0.000000
v -0.185442 -0.397768 -0.000000
v -0.405458 -0.002640 0.746738
v -0.152761 -0.659961 0.049509
v -0.491953 -0.050802 0.746738
v -0.457897 -0.111963 0.816741
v -0.084647 -0.782288 0.049505
v 0.001848 -0.734126 0.049505
v -0.371402 -0.063801 0.816741
v -0.066265 -0.611800 0.049508
v -0.410200 0.005876 0.000000
v -0.496695 -0.042287 -0.000000
v -0.496695 -0.042287 0.049507
v -0.152908 -0.659697 1.600505
v 0.001671 -0.733807 1.600449
v -0.066413 -0.611534 1.600505
v -0.371402 -0.063801 0.833578
v -0.405458 -0.002640 0.903581
v -0.185442 -0.397768 0.775507
v 0.039315 -0.801412 0.874507
v 0.039315 -0.801412 0.775507
v -0.047181 -0.849575 0.775507
v -0.271937 -0.445931 0.874507
v -0.271937 -0.445931 0.775507
v -0.410200 0.005876 0.874507
v -0.410200 0.005876 0.775507
v -0.496695 -0.042287 0.775507
v -0.185442 -0.397768 0.874507
v -0.496695 -0.042287 0.874507
v -0.047181 -0.849575 0.874507
v -0.457897 -0.111963 0.833578
v -0.491953 -0.050802 0.903581
v -0.084824 -0.781970 1.600449
v 0.039315 -0.801412 1.600494
v -0.185442 -0.397768 1.650003
v 0.039315 -0.801412 1.650003
v -0.047181 -0.849575 1.600494
v -0.271937 -0.445931 1.650003
v -0.271937 -0.445931 1.600494
v -0.185442 -0.397768 1.600494
v -0.410199 0.005876 1.650003
v -0.410199 0.005876 1.600494
v -0.496694 -0.042287 1.600494
v -0.496694 -0.042287 1.650003
v -0.039315 -0.801412 -0.000000
v 0.185442 -0.397768 0.049507
v 0.185442 -0.397768 -0.000000
v 0.271937 -0.445930 0.049507
v 0.047181 -0.849574 -0.000000
v 0.271937 -0.445930 -0.000000
v -0.039315 -0.801412 0.049507
v 0.047181 -0.849574 0.049507
v 0.405458 -0.002640 0.746738
v 0.152761 -0.659961 0.049509
v 0.066265 -0.611800 0.049508
v 0.457897 -0.111963 0.816741
v 0.491953 -0.050802 0.746738
v -0.001848 -0.734126 0.049505
v 0.084647 -0.782288 0.049505
v 0.371402 -0.063801 0.816741
v 0.410200 0.005876 0.000000
v 0.410200 0.005876 0.049507
v 0.496695 -0.042287 -0.000000
v -0.001671 -0.733807 1.600449
v 0.152908 -0.659697 1.600505
v 0.066413 -0.611534 1.600505
v 0.371402 -0.063801 0.833578
v -0.039315 -0.801412 0.874507
v 0.185442 -0.397768 0.775507
v -0.039315 -0.801412 0.775507
v 0.271937 -0.445931 0.874507
v 0.047181 -0.849575 0.775507
v 0.271937 -0.445931 0.775507
v 0.410200 0.005876 0.874507
v 0.410200 0.005876 0.775507
v 0.496695 -0.042287 0.775507
v 0.185442 -0.397768 0.874507
v 0.047181 -0.849575 0.874507
v 0.457897 -0.111963 0.833578
v 0.491953 -0.050802 0.903581
v 0.405458 -0.002640 0.903581
v -0.039315 -0.801412 1.600494
v 0.185442 -0.397768 1.650003
v 0.185442 -0.397768 1.600494
v 0.271937 -0.445931 1.650003
v 0.047181 -0.849575 1.600494
v 0.271937 -0.445931 1.600494
v -0.039315 -0.801412 1.650003
v 0.047181 -0.849575 1.650003
v 0.410200 0.005876 1.650003
v 0.410200 0.005876 1.600494
v 0.496695 -0.042287 1.600494
v -0.047181 -0.849574 0.049507
v -0.410200 0.005876 0.049507
v -0.047181 -0.849575 1.650003
v 0.496695 -0.042287 0.049507
v 0.084825 -0.781970 1.600449
v 0.496695 -0.042287 0.874507
v 0.496695 -0.042287 1.650003
v 0.460989 -0.049500 0.000008
v -0.463011 -0.049500 0.098992
v -0.463011 -0.049500 0.000008
v -0.463011 0.049500 0.000008
v 0.460989 0.049500 0.098992
v 0.460989 0.049500 0.000008
v -0.463011 0.049500 0.098992
v 0.460989 -0.049500 0.098992
v 0.331978 0.049500 0.025059
v -0.326455 0.049500 0.824993
v 0.401982 0.049500 0.095062
v 0.370473 -0.049500 0.095062
v -0.466476 -0.049500 0.825007
v 0.331978 -0.049500 0.025059
v -0.326455 -0.049500 0.824993
v -0.466476 0.049500 0.825007
v 0.460989 -0.049500 0.825008
v -0.463011 -0.049500 0.923992
v -0.463011 -0.049500 0.825008
v -0.463011 0.049500 0.825008
v 0.460989 0.049500 0.923992
v 0.460989 0.049500 0.825008
v -0.463011 0.049500 0.923992
v 0.460989 -0.049500 0.923992
v 0.331978 0.049500 0.850059
v -0.326455 0.049500 1.649993
v 0.401982 0.049500 0.920063
v 0.370473 -0.049500 0.920063
v -0.466476 -0.049501 1.650007
v 0.331978 -0.049500 0.850059
v -0.326455 -0.049501 1.649993
v -0.466476 0.049500 1.650007
v 0.504984 0.103774 0.825014
v 0.541425 0.079425 0.000000
v 0.504984 0.103774 0.000000
v 0.565774 0.042984 0.825014
v 0.574324 0.000000 0.000000
v 0.565774 0.042984 0.000000
v 0.462000 0.112324 0.825014
v 0.462000 0.112324 0.000000
v 0.419016 0.103774 0.825014
v 0.419016 0.103774 0.000000
v 0.574323 -0.000000 0.825014
v 0.565774 -0.042984 -0.000000
v 0.462000 0.000000 0.000000
v 0.541425 0.079425 0.825014
v 0.382575 0.079425 0.000000
v 0.358227 0.042984 0.000000
v 0.349676 0.000000 0.000000
v 0.358227 -0.042984 -0.000000
v 0.382575 -0.079425 -0.000000
v 0.419016 -0.103774 -0.000000
v 0.462000 -0.112324 -0.000000
v 0.504984 -0.103774 -0.000000
v 0.541425 -0.079425 -0.000000
v 0.079425 -0.904425 0.825003
v 0.042984 -0.928774 -0.000011
v 0.079425 -0.904425 -0.000011
v 0.103774 -0.867985 0.825003
v 0.103774 -0.867985 -0.000011
v 0.112324 -0.825000 0.825003
v 0.112324 -0.825000 -0.000011
v 0.000000 -0.712676 0.825003
v 0.042984 -0.721227 -0.000011
v 0.000000 -0.712676 -0.000011
v 0.103774 -0.782016 0.825003
v 0.103774 -0.782016 -0.000011
v 0.079425 -0.745575 0.825003
v 0.079425 -0.745575 -0.000011
v 0.042984 -0.721227 0.825003
v 0.000000 -0.825000 -0.000011
v 0.042984 -0.928774 0.825003
v 0.000000 -0.937323 -0.000011
v 0.565774 -0.042984 0.825014
v 0.541425 -0.079425 0.825014
v 0.504984 -0.103774 0.825014
v 0.462000 -0.112324 0.825014
v 0.419016 -0.103774 0.825014
v 0.382575 -0.079425 0.825014
v 0.358227 -0.042984 0.825014
v 0.349676 -0.000000 0.825014
v 0.358227 0.042984 0.825014
v 0.382575 0.079425 0.825014
v -0.541425 0.079425 -0.000007
v -0.504984 0.103774 0.825007
v -0.504984 0.103774 -0.000007
v -0.574324 0.000000 -0.000006
v -0.565774 0.042984 0.825007
v -0.565774 0.042984 -0.000007
v -0.462000 0.112324 0.825007
v -0.462000 0.112324 -0.000007
v -0.419016 0.103774 0.825007
v -0.419016 0.103774 -0.000007
v -0.565774 -0.042984 -0.000006
v -0.574323 -0.000000 0.825007
v -0.462000 0.000000 -0.000007
v -0.541425 0.079425 0.825007
v -0.382575 0.079425 -0.000007
v -0.358227 0.042984 -0.000007
v -0.349676 0.000000 -0.000007
v -0.358227 -0.042984 -0.000007
v -0.382575 -0.079425 -0.000007
v -0.419016 -0.103774 -0.000007
v -0.462000 -0.112324 -0.000007
v -0.504984 -0.103774 -0.000007
v -0.541425 -0.079425 -0.000006
v -0.042984 -0.928774 -0.000011
v -0.079425 -0.904425 0.825003
v -0.079425 -0.904425 -0.000011
v -0.103774 -0.867985 0.825003
v -0.103774 -0.867985 -0.000011
v -0.112324 -0.825000 0.825003
v -0.112324 -0.825000 -0.000011
v -0.042984 -0.721227 -0.000011
v -0.103774 -0.782016 0.825003
v -0.103774 -0.782016 -0.000011
v -0.079425 -0.745575 0.825003
v -0.079425 -0.745575 -0.000011
v -0.042984 -0.721227 0.825003
v -0.042984 -0.928774 0.825003
v -0.541425 -0.079425 0.825007
v -0.565774 -0.042984 0.825007
v -0.504984 -0.103774 0.825007
v -0.462000 -0.112324 0.825007
v -0.419016 -0.103774 0.825007
v -0.382575 -0.079425 0.825007
v -0.358227 -0.042984 0.825007
v -0.349676 -0.000000 0.825007
v -0.358227 0.042984 0.825007
v -0.382575 0.079425 0.825007
v 0.462000 -0.000000 0.825014
v -0.462000 -0.000000 0.825007
v 0.000000 -0.825000 0.825003
v 0.000000 -0.937323 0.825003
v 0.504984 0.103774 1.650014
v 0.541425 0.079425 0.825000
v 0.504984 0.103774 0.825000
v 0.565774 0.042984 1.650014
v 0.574324 -0.000000 0.825000
v 0.565774 0.042984 0.825000
v 0.462000 0.112324 1.650014
v 0.462000 0.112324 0.825000
v 0.419016 0.103774 1.650014
v 0.419016 0.103774 0.825000
v 0.574324 -0.000000 1.650014
v 0.565774 -0.042984 0.825000
v 0.462000 -0.000000 0.825000
v 0.541425 0.079425 1.650014
v 0.382575 0.079425 0.825000
v 0.358227 0.042984 0.825000
v 0.349676 -0.000000 0.825000
v 0.358227 -0.042984 0.825000
v 0.382575 -0.079425 0.825000
v 0.419016 -0.103774 0.825000
v 0.462000 -0.112324 0.825000
v 0.504984 -0.103774 0.825000
v 0.541425 -0.079425 0.825000
v 0.079425 -0.904425 1.650002
v 0.042984 -0.928774 0.824989
v 0.079425 -0.904425 0.824989
v 0.103774 -0.867985 1.650002
v 0.103774 -0.867985 0.824989
v 0.112324 -0.825000 1.650002
v 0.112324 -0.825000 0.824989
v 0.000000 -0.712676 1.650002
v 0.042984 -0.721227 0.824989
v 0.000000 -0.712676 0.824989
v 0.103774 -0.782016 1.650002
v 0.103774 -0.782016 0.824989
v 0.079425 -0.745575 1.650002
v 0.079425 -0.745575 0.824989
v 0.042984 -0.721227 1.650002
v 0.000000 -0.825000 0.824989
v 0.042984 -0.928774 1.650002
v 0.000000 -0.937323 0.824989
v 0.565774 -0.042984 1.650014
v 0.541425 -0.079425 1.650014
v 0.504984 -0.103774 1.650014
v 0.462000 -0.112324 1.650014
v 0.419016 -0.103774 1.650014
v 0.382575 -0.079425 1.650014
v 0.358227 -0.042984 1.650014
v 0.349676 -0.000000 1.650014
v 0.358227 0.042984 1.650014
v 0.382575 0.079425 1.650014
v -0.541425 0.079425 0.824993
v -0.504984 0.103774 1.650007
v -0.504984 0.103774 0.824993
v -0.574323 -0.000000 0.824993
v -0.565774 0.042984 1.650007
v -0.565774 0.042984 0.824993
v -0.462000 0.112324 1.650007
v -0.462000 0.112324 0.824993
v -0.419016 0.103774 1.650007
v -0.419016 0.103774 0.824993
v -0.565774 -0.042984 0.824993
v -0.574323 -0.000000 1.650007
v -0.462000 -0.000000 0.824993
v -0.541424 0.079425 1.650007
v -0.382575 0.079425 0.824993
v -0.358227 0.042984 0.824993
v -0.349676 -0.000000 0.824993
v -0.358227 -0.042984 0.824993
v -0.382575 -0.079425 0.824993
v -0.419016 -0.103774 0.824993
v -0.462000 -0.112324 0.824993
v -0.504984 -0.103774 0.824993
v -0.541425 -0.079425 0.824993
v -0.042984 -0.928774 0.824989
v -0.079425 -0.904425 1.650002
v -0.079425 -0.904425 0.824989
v -0.103774 -0.867985 1.650002
v -0.103774 -0.867985 0.824989
v -0.112324 -0.825000 1.650002
v -0.112324 -0.825000 0.824989
v -0.042984 -0.721227 0.824989
v -0.103774 -0.782016 1.650002
v -0.103774 -0.782016 0.824989
v -0.079425 -0.745575 1.650002
v -0.079425 -0.745575 0.824989
v -0.042984 -0.721227 1.650002
v -0.042984 -0.928774 1.650002
v -0.565774 -0.042984 1.650007
v -0.541424 -0.079425 1.650007
v -0.504984 -0.103774 1.650007
v -0.461999 -0.112324 1.650007
v -0.419016 -0.103774 1.650007
v -0.382575 -0.079425 1.650007
v -0.358227 -0.042984 1.650007
v -0.349676 -0.000000 1.650007
v -0.358227 0.042984 1.650007
v -0.382575 0.079425 1.650007
v 0.462000 -0.000000 1.650014
v -0.462000 -0.000000 1.650007
v 0.000000 -0.825000 1.650002
v 0.000000 -0.937323 1.650002
vn 0.8737 0.4865 0.0000
vn -0.8737 -0.4865 0.0000
vn 0.0000 -0.0000 1.0000
vn 0.0000 0.0000 -1.0000
vn -0.3440 0.6178 -0.7071
vn 0.3440 -0.6178 0.7071
vn 0.0002 -0.0004 1.0000
vn 0.4865 -0.8737 0.0000
vn -0.3440 0.6178 0.7071
vn 0.3440 -0.6178 -0.7071
vn -0.8737 0.4865 0.0000
vn 0.8737 -0.4865 0.0000
vn 0.3440 0.6178 -0.7071
vn -0.3440 -0.6178 0.7071
vn -0.0002 -0.0004 1.0000
vn -0.4865 -0.8737 0.0000
vn 0.3440 0.6178 0.7071
vn -0.3440 -0.6178 -0.7071
vn 0.0000 -1.0000 0.0000
vn 0.0000 1.0000 0.0000
vn 0.6905 -0.2198 0.6891
vn -0.7078 0.0000 -0.7064
vn 0.0001 0.0000 1.0000
vn 0.7233 0.0000 0.6906
vn 1.0000 0.0000 0.0000
vn -1.0000 0.0000 0.0000
vn 0.3827 0.9239 0.0000
vn 0.7071 0.7071 0.0000
vn 0.9239 0.3827 0.0000
vn -0.3827 0.9239 0.0000
vn 0.9239 -0.3827 0.0000
vn 0.7071 -0.7071 -0.0000
vn 0.3827 -0.9239 -0.0000
vn -0.3827 -0.9239 -0.0000
vn -0.7071 -0.7071 -0.0000
vn -0.9239 -0.3827 -0.0000
vn -0.9239 0.3827 0.0000
vn -0.7071 0.7071 0.0000
usemtl Remap1_BackgroundAA.001
s off
f 1//1 2//1 3//1
f 4//2 5//2 6//2
f 5//3 3//3 2//3
f 1//4 6//4 7//4
f 8//5 9//5 10//5
f 11//2 9//2 12//2
f 11//6 13//6 14//6
f 14//1 15//1 8//1
f 16//1 2//1 7//1
f 5//2 17//2 6//2
f 2//3 18//3 5//3
f 6//4 16//4 7//4
f 19//7 20//7 21//7
f 21//1 22//1 23//1
f 24//1 25//1 26//1
f 27//2 28//2 29//2
f 26//4 29//4 24//4
f 30//1 24//1 31//1
f 28//2 32//2 29//2
f 33//3 34//3 28//3
f 29//4 31//4 24//4
f 28//3 25//3 33//3
f 35//8 26//8 25//8
f 36//2 19//2 37//2
f 23//9 19//9 21//9
f 22//10 38//10 36//10
f 39//1 40//1 41//1
f 42//2 43//2 44//2
f 43//3 41//3 40//3
f 39//4 44//4 45//4
f 46//1 45//1 47//1
f 43//2 48//2 44//2
f 40//3 49//3 43//3
f 44//4 47//4 45//4
f 50//11 51//11 52//11
f 53//12 54//12 55//12
f 53//3 56//3 57//3
f 55//4 50//4 52//4
f 58//13 59//13 60//13
f 61//12 59//12 62//12
f 61//14 63//14 64//14
f 65//11 60//11 63//11
f 66//11 51//11 67//11
f 68//12 53//12 55//12
f 53//3 67//3 51//3
f 66//4 55//4 52//4
f 69//15 70//15 71//15
f 71//11 72//11 69//11
f 73//11 74//11 75//11
f 76//12 77//12 78//12
f 74//4 77//4 75//4
f 74//11 79//11 80//11
f 81//12 76//12 78//12
f 76//3 79//3 82//3
f 80//4 78//4 74//4
f 76//3 73//3 83//3
f 75//16 83//16 73//16
f 70//12 84//12 85//12
f 86//17 70//17 85//17
f 84//18 69//18 72//18
f 87//11 88//11 89//11
f 90//12 91//12 92//12
f 90//3 93//3 94//3
f 92//4 87//4 89//4
f 89//11 95//11 96//11
f 97//12 90//12 92//12
f 90//3 95//3 88//3
f 96//4 92//4 89//4
f 1//1 7//1 2//1
f 4//2 98//2 5//2
f 5//3 98//3 3//3
f 1//4 4//4 6//4
f 8//5 15//5 9//5
f 11//2 10//2 9//2
f 11//6 12//6 13//6
f 14//1 13//1 15//1
f 16//1 99//1 2//1
f 5//2 18//2 17//2
f 2//3 99//3 18//3
f 6//4 17//4 16//4
f 19//7 38//7 20//7
f 21//1 20//1 22//1
f 24//1 33//1 25//1
f 27//2 35//2 28//2
f 26//4 27//4 29//4
f 30//1 33//1 24//1
f 28//2 34//2 32//2
f 33//3 30//3 34//3
f 29//4 32//4 31//4
f 28//3 35//3 25//3
f 35//8 27//8 26//8
f 36//2 38//2 19//2
f 23//9 37//9 19//9
f 22//10 20//10 38//10
f 39//1 45//1 40//1
f 42//2 100//2 43//2
f 43//3 100//3 41//3
f 39//4 42//4 44//4
f 46//1 40//1 45//1
f 43//2 49//2 48//2
f 40//3 46//3 49//3
f 44//4 48//4 47//4
f 50//11 56//11 51//11
f 53//12 57//12 54//12
f 53//3 51//3 56//3
f 55//4 54//4 50//4
f 58//13 62//13 59//13
f 61//12 64//12 59//12
f 61//14 65//14 63//14
f 65//11 58//11 60//11
f 66//11 52//11 51//11
f 68//12 101//12 53//12
f 53//3 101//3 67//3
f 66//4 68//4 55//4
f 69//15 102//15 70//15
f 71//11 86//11 72//11
f 73//11 82//11 74//11
f 76//12 83//12 77//12
f 74//4 78//4 77//4
f 74//11 82//11 79//11
f 81//12 103//12 76//12
f 76//3 103//3 79//3
f 80//4 81//4 78//4
f 76//3 82//3 73//3
f 75//16 77//16 83//16
f 70//12 102//12 84//12
f 86//17 71//17 70//17
f 84//18 102//18 69//18
f 87//11 93//11 88//11
f 90//12 94//12 91//12
f 90//3 88//3 93//3
f 92//4 91//4 87//4
f 89//11 88//11 95//11
f 97//12 104//12 90//12
f 90//3 104//3 95//3
f 96//4 97//4 92//4
f 105//19 106//19 107//19
f 108//20 109//20 110//20
f 111//3 112//3 109//3
f 107//4 110//4 105//4
f 113//20 114//20 115//20
f 114//21 116//21 115//21
f 117//22 113//22 118//22
f 119//19 118//19 116//19
f 120//23 119//23 114//23
f 121//19 122//19 123//19
f 124//20 125//20 126//20
f 127//3 128//3 125//3
f 123//4 126//4 121//4
f 129//20 130//20 131//20
f 130//21 132//21 131//21
f 133//22 129//22 134//22
f 135//19 134//19 132//19
f 136//23 135//23 130//23
f 105//19 112//19 106//19
f 108//20 111//20 109//20
f 111//3 106//3 112//3
f 107//4 108//4 110//4
f 113//20 120//20 114//20
f 114//24 119//24 116//24
f 117//22 120//22 113//22
f 119//19 117//19 118//19
f 120//23 117//23 119//23
f 121//19 128//19 122//19
f 124//20 127//20 125//20
f 127//3 122//3 128//3
f 123//4 124//4 126//4
f 129//20 136//20 130//20
f 130//24 135//24 132//24
f 133//22 136//22 129//22
f 135//19 133//19 134//19
f 136//23 133//23 135//23
usemtl Remap1_BackgroundAA
f 105//25 109//25 112//25
f 111//26 107//26 106//26
f 121//25 125//25 128//25
f 127//26 123//26 122//26
f 105//25 110//25 109//25
f 111//26 108//26 107//26
f 121//25 126//25 125//25
f 127//26 124//26 123//26
s 1
f 137//27 138//28 139//27
f 140//29 141//25 142//29
f 143//20 139//27 144//20
f 145//30 144//20 146//30
f 147//25 148//31 141//25
f 141//4 149//4 142//4
f 150//28 142//29 138//28
f 142//4 149//4 138//4
f 138//4 149//4 139//4
f 139//4 149//4 144//4
f 144//4 149//4 146//4
f 146//4 149//4 151//4
f 151//4 149//4 152//4
f 149//4 153//4 152//4
f 153//4 149//4 154//4
f 154//4 149//4 155//4
f 155//4 149//4 156//4
f 156//4 149//4 157//4
f 157//4 149//4 158//4
f 158//4 149//4 159//4
f 159//4 149//4 148//4
f 141//4 148//4 149//4
f 160//32 161//33 162//32
f 163//31 162//32 164//31
f 165//25 164//31 166//25
f 167//20 168//27 169//20
f 170//29 166//25 171//29
f 172//28 171//29 173//28
f 174//27 173//28 168//27
f 166//4 175//4 171//4
f 176//33 177//19 161//33
f 171//4 175//4 173//4
f 173//4 175//4 168//4
f 168//4 175//4 169//4
f 177//4 175//4 161//4
f 161//4 175//4 162//4
f 162//4 175//4 164//4
f 166//4 164//4 175//4
f 178//31 159//32 148//31
f 179//32 158//33 159//32
f 180//33 157//19 158//33
f 181//19 156//34 157//19
f 182//34 155//35 156//34
f 183//35 154//36 155//35
f 153//26 184//36 185//26
f 185//26 152//37 153//26
f 186//37 151//38 152//37
f 187//38 146//30 151//38
f 188//38 189//30 190//30
f 191//26 192//37 193//37
f 190//30 194//20 195//20
f 195//20 196//27 197//27
f 198//36 199//26 191//26
f 191//4 193//4 200//4
f 193//37 201//38 188//38
f 193//4 188//4 200//4
f 188//4 190//4 200//4
f 190//4 195//4 200//4
f 195//4 197//4 200//4
f 197//4 202//4 200//4
f 202//4 203//4 200//4
f 200//4 203//4 204//4
f 204//4 205//4 200//4
f 205//4 206//4 200//4
f 206//4 207//4 200//4
f 207//4 208//4 200//4
f 208//4 209//4 200//4
f 209//4 210//4 200//4
f 210//4 198//4 200//4
f 191//4 200//4 198//4
f 211//34 212//35 213//35
f 213//35 214//36 215//36
f 215//36 216//26 217//26
f 218//30 167//20 169//20
f 217//26 219//37 220//37
f 220//37 221//38 222//38
f 222//38 223//30 218//30
f 217//4 220//4 175//4
f 177//19 224//34 211//34
f 220//4 222//4 175//4
f 222//4 218//4 175//4
f 218//4 169//4 175//4
f 177//4 211//4 175//4
f 211//4 213//4 175//4
f 213//4 215//4 175//4
f 217//4 175//4 215//4
f 198//36 225//35 226//36
f 209//34 225//35 210//35
f 208//19 227//34 209//34
f 207//33 228//19 208//19
f 206//32 229//33 207//33
f 205//31 230//32 206//32
f 231//31 204//25 232//25
f 203//29 232//25 204//25
f 202//28 233//29 203//29
f 197//27 234//28 202//28
f 147//3 140//3 235//3
f 150//3 235//3 140//3
f 137//3 235//3 150//3
f 143//3 235//3 137//3
f 145//3 235//3 143//3
f 187//3 235//3 145//3
f 186//3 235//3 187//3
f 185//3 235//3 186//3
f 184//3 235//3 185//3
f 183//3 235//3 184//3
f 182//3 235//3 183//3
f 181//3 235//3 182//3
f 180//3 235//3 181//3
f 179//3 235//3 180//3
f 178//3 235//3 179//3
f 147//3 235//3 178//3
f 199//3 236//3 192//3
f 201//3 192//3 236//3
f 189//3 201//3 236//3
f 194//3 189//3 236//3
f 196//3 194//3 236//3
f 234//3 196//3 236//3
f 233//3 234//3 236//3
f 232//3 233//3 236//3
f 231//3 232//3 236//3
f 230//3 231//3 236//3
f 229//3 230//3 236//3
f 228//3 229//3 236//3
f 227//3 228//3 236//3
f 225//3 227//3 236//3
f 226//3 225//3 236//3
f 199//3 226//3 236//3
f 167//3 223//3 237//3
f 223//3 221//3 237//3
f 221//3 219//3 237//3
f 219//3 216//3 237//3
f 216//3 214//3 237//3
f 214//3 212//3 237//3
f 212//3 224//3 237//3
f 224//3 238//3 237//3
f 176//3 237//3 238//3
f 160//3 237//3 176//3
f 163//3 237//3 160//3
f 165//3 237//3 163//3
f 170//3 237//3 165//3
f 172//3 237//3 170//3
f 174//3 237//3 172//3
f 167//3 237//3 174//3
f 239//27 240//28 241//27
f 242//29 243//25 244//29
f 245//20 241//27 246//20
f 247//30 246//20 248//30
f 249//25 250//31 243//25
f 243//4 251//4 244//4
f 252//28 244//29 240//28
f 244//4 251//4 240//4
f 240//4 251//4 241//4
f 241//4 251//4 246//4
f 246//4 251//4 248//4
f 248//4 251//4 253//4
f 253//4 251//4 254//4
f 251//4 255//4 254//4
f 255//4 251//4 256//4
f 256//4 251//4 257//4
f 257//4 251//4 258//4
f 258//4 251//4 259//4
f 259//4 251//4 260//4
f 260//4 251//4 261//4
f 261//4 251//4 250//4
f 243//4 250//4 251//4
f 262//32 263//33 264//32
f 265//31 264//32 266//31
f 267//25 266//31 268//25
f 269//20 270//27 271//20
f 272//29 268//25 273//29
f 274//28 273//29 275//28
f 276//27 275//28 270//27
f 268//4 277//4 273//4
f 278//33 279//19 263//33
f 273//4 277//4 275//4
f 275//4 277//4 270//4
f 270//4 277//4 271//4
f 279//4 277//4 263//4
f 263//4 277//4 264//4
f 264//4 277//4 266//4
f 268//4 266//4 277//4
f 280//31 261//32 250//31
f 281//32 260//33 261//32
f 282//33 259//19 260//33
f 283//19 258//34 259//19
f 284//34 257//35 258//34
f 285//35 256//36 257//35
f 255//26 286//36 287//26
f 287//26 254//37 255//26
f 288//37 253//38 254//37
f 289//38 248//30 253//38
f 290//38 291//30 292//30
f 293//26 294//37 295//37
f 292//30 296//20 297//20
f 297//20 298//27 299//27
f 300//36 301//26 293//26
f 293//4 295//4 302//4
f 295//37 303//38 290//38
f 295//4 290//4 302//4
f 290//4 292//4 302//4
f 292//4 297//4 302//4
f 297//4 299//4 302//4
f 299//4 304//4 302//4
f 304//4 305//4 302//4
f 302//4 305//4 306//4
f 306//4 307//4 302//4
f 307//4 308//4 302//4
f 308//4 309//4 302//4
f 309//4 310//4 302//4
f 310//4 311//4 302//4
f 311//4 312//4 302//4
f 312//4 300//4 302//4
f 293//4 302//4 300//4
f 313//34 314//35 315//35
f 315//35 316//36 317//36
f 317//36 318//26 319//26
f 320//30 269//20 271//20
f 319//26 321//37 322//37
f 322//37 323//38 324//38
f 324//38 325//30 320//30
f 319//4 322//4 277//4
f 279//19 326//34 313//34
f 322//4 324//4 277//4
f 324//4 320//4 277//4
f 320//4 271//4 277//4
f 279//4 313//4 277//4
f 313//4 315//4 277//4
f 315//4 317//4 277//4
f 319//4 277//4 317//4
f 312//35 327//36 300//36
f 311//34 328//35 312//35
f 310//19 329//34 311//34
f 309//33 330//19 310//19
f 308//32 331//33 309//33
f 307//31 332//32 308//32
f 333//31 306//25 334//25
f 305//29 334//25 306//25
f 304//28 335//29 305//29
f 299//27 336//28 304//28
f 249//3 242//3 337//3
f 252//3 337//3 242//3
f 239//3 337//3 252//3
f 245//3 337//3 239//3
f 247//3 337//3 245//3
f 289//3 337//3 247//3
f 288//3 337//3 289//3
f 287//3 337//3 288//3
f 286//3 337//3 287//3
f 285//3 337//3 286//3
f 284//3 337//3 285//3
f 283//3 337//3 284//3
f 282//3 337//3 283//3
f 281//3 337//3 282//3
f 280//3 337//3 281//3
f 249//3 337//3 280//3
f 301//3 338//3 294//3
f 303//3 294//3 338//3
f 291//3 303//3 338//3
f 296//3 291//3 338//3
f 298//3 296//3 338//3
f 336//3 298//3 338//3
f 335//3 336//3 338//3
f 334//3 335//3 338//3
f 333//3 334//3 338//3
f 332//3 333//3 338//3
f 331//3 332//3 338//3
f 330//3 331//3 338//3
f 329//3 330//3 338//3
f 328//3 329//3 338//3
f 327//3 328//3 338//3
f 301//3 327//3 338//3
f 269//3 325//3 339//3
f 325//3 323//3 339//3
f 323//3 321//3 339//3
f 321//3 318//3 339//3
f 318//3 316//3 339//3
f 316//3 314//3 339//3
f 314//3 326//3 339//3
f 326//3 340//3 339//3
f 278//3 339//3 340//3
f 262//3 339//3 278//3
f 265//3 339//3 262//3
f 267//3 339//3 265//3
f 272//3 339//3 267//3
f 274//3 339//3 272//3
f 276//3 339//3 274//3
f 269//3 339//3 276//3
f 137//27 150//28 138//28
f 140//29 147//25 141//25
f 143//20 137//27 139//27
f 145//30 143//20 144//20
f 147//25 178//31 148//31
f 150//28 140//29 142//29
f 160//32 176//33 161//33
f 163//31 160//32 162//32
f 165//25 163//31 164//31
f 167//20 174//27 168//27
f 170//29 165//25 166//25
f 172//28 170//29 171//29
f 174//27 172//28 173//28
f 176//33 238//19 177//19
f 178//31 179//32 159//32
f 179//32 180//33 158//33
f 180//33 181//19 157//19
f 181//19 182//34 156//34
f 182//34 183//35 155//35
f 183//35 184//36 154//36
f 153//26 154//36 184//36
f 185//26 186//37 152//37
f 186//37 187//38 151//38
f 187//38 145//30 146//30
f 188//38 201//38 189//30
f 191//26 199//26 192//37
f 190//30 189//30 194//20
f 195//20 194//20 196//27
f 198//36 226//36 199//26
f 193//37 192//37 201//38
f 211//34 224//34 212//35
f 213//35 212//35 214//36
f 215//36 214//36 216//26
f 218//30 223//30 167//20
f 217//26 216//26 219//37
f 220//37 219//37 221//38
f 222//38 221//38 223//30
f 177//19 238//19 224//34
f 198//36 210//35 225//35
f 209//34 227//34 225//35
f 208//19 228//19 227//34
f 207//33 229//33 228//19
f 206//32 230//32 229//33
f 205//31 231//31 230//32
f 231//31 205//31 204//25
f 203//29 233//29 232//25
f 202//28 234//28 233//29
f 197//27 196//27 234//28
f 239//27 252//28 240//28
f 242//29 249//25 243//25
f 245//20 239//27 241//27
f 247//30 245//20 246//20
f 249//25 280//31 250//31
f 252//28 242//29 244//29
f 262//32 278//33 263//33
f 265//31 262//32 264//32
f 267//25 265//31 266//31
f 269//20 276//27 270//27
f 272//29 267//25 268//25
f 274//28 272//29 273//29
f 276//27 274//28 275//28
f 278//33 340//19 279//19
f 280//31 281//32 261//32
f 281//32 282//33 260//33
f 282//33 283//19 259//19
f 283//19 284//34 258//34
f 284//34 285//35 257//35
f 285//35 286//36 256//36
f 255//26 256//36 286//36
f 287//26 288//37 254//37
f 288//37 289//38 253//38
f 289//38 247//30 248//30
f 290//38 303//38 291//30
f 293//26 301//26 294//37
f 292//30 291//30 296//20
f 297//20 296//20 298//27
f 300//36 327//36 301//26
f 295//37 294//37 303//38
f 313//34 326//34 314//35
f 315//35 314//35 316//36
f 317//36 316//36 318//26
f 320//30 325//30 269//20
f 319//26 318//26 321//37
f 322//37 321//37 323//38
f 324//38 323//38 325//30
f 279//19 340//19 326//34
f 312//35 328//35 327//36
f 311//34 329//34 328//35
f 310//19 330//19 329//34
f 309//33 331//33 330//19
f 308//32 332//32 331//33
f 307//31 333//31 332//32
f 333//31 307//31 306//25
f 305//29 335//29 334//25
f 304//28 336//28 335//29
f 299//27 298//27 336//28
