# Blender v2.79 (sub 7) OBJ File: 'rmcnew.blend'
# www.blender.org
mtllib rmc_master.mtl
v 1.776998 -0.774699 0.050806
v 1.776998 -0.812799 0.060326
v 1.776998 -1.047749 0.050806
v 1.776998 -0.774699 0.127006
v 1.776998 -0.812799 0.127006
v 1.776998 -1.009649 0.060326
v 1.776998 -1.047749 0.127006
v 1.776998 -1.009649 0.127006
v -1.649998 -0.774699 0.050806
v -1.776998 -0.774699 0.050806
v -1.649998 -0.774699 0.103126
v 1.443749 -0.774699 0.050806
v -1.443749 -0.774699 0.050806
v 1.443749 -0.774699 0.103126
v 1.649998 -0.774699 0.103126
v 1.649998 -0.774699 0.050806
v -1.443749 -0.774699 0.103126
v -1.776998 -0.774699 0.127006
v 1.649998 -1.047749 0.103126
v 1.443749 -1.047749 0.103126
v -1.443749 -1.047749 0.103126
v 1.443749 -1.047749 0.050806
v -1.776998 -1.047749 0.127006
v -1.649998 -1.047749 0.103126
v -1.776998 -1.047749 0.050806
v -1.649998 -1.047749 0.050806
v 1.649998 -1.047749 0.050806
v -1.443749 -1.047749 0.050806
v -1.776998 -1.009649 0.060326
v -1.776998 -1.009649 0.127006
v -1.776998 -0.812799 0.060326
v -1.776998 -0.812799 0.127006
v 1.649994 -0.812799 0.060330
v 1.443744 -0.812799 0.060330
v -1.443753 -0.812799 0.060330
v -1.650003 -0.812799 0.060330
v -1.650003 -1.009649 0.060330
v 1.443744 -1.009649 0.060330
v 1.649994 -1.009649 0.060330
v -1.443753 -1.009649 0.060330
v 1.776998 -0.774699 -0.126994
v 1.776998 -0.812799 -0.060314
v 1.776998 -0.812799 -0.126994
v 1.776998 -0.774699 -0.050794
v 1.776998 -1.009649 -0.060314
v 1.776998 -1.047749 -0.126994
v 1.776998 -1.009649 -0.126994
v 1.776998 -1.047749 -0.050794
v 1.649998 -0.774699 -0.103114
v 1.443749 -0.774699 -0.103114
v -1.443749 -0.774699 -0.103114
v 1.443749 -0.774699 -0.050794
v -1.776998 -0.774699 -0.126994
v -1.649998 -0.774699 -0.103114
v -1.776998 -0.774699 -0.050794
v -1.649998 -0.774699 -0.050794
v 1.649998 -0.774699 -0.050794
v -1.443749 -0.774699 -0.050794
v -1.649998 -1.047749 -0.050794
v -1.776998 -1.047749 -0.050794
v -1.649998 -1.047749 -0.103114
v 1.443749 -1.047749 -0.050794
v -1.443749 -1.047749 -0.050794
v 1.443749 -1.047749 -0.103114
v 1.649998 -1.047749 -0.103114
v 1.649998 -1.047749 -0.050794
v -1.443749 -1.047749 -0.103114
v -1.776998 -1.047749 -0.126994
v -1.776998 -1.009649 -0.060314
v -1.776998 -1.009649 -0.126994
v -1.776998 -0.812799 -0.060314
v -1.776998 -0.812799 -0.126994
v -1.649998 -0.812799 -0.060310
v 1.443749 -0.812799 -0.060310
v 1.649998 -0.812799 -0.060310
v -1.443749 -0.812799 -0.060310
v 1.443749 -1.009649 -0.060310
v -1.443749 -1.009649 -0.060310
v -1.649998 -1.009649 -0.060314
v 1.649998 -1.009649 -0.060314
v 1.776998 0.166553 0.050806
v 1.776998 0.128453 0.060326
v 1.776998 -0.106497 0.050806
v 1.776998 0.166553 0.127006
v 1.776998 0.128453 0.127006
v 1.776998 -0.068397 0.060326
v 1.776998 -0.106497 0.127006
v 1.776998 -0.068397 0.127006
v 1.443749 0.166553 0.050806
v 1.202879 0.166553 0.050806
v 1.443749 0.166553 0.103126
v 1.649998 0.166553 0.103126
v 1.649998 0.166553 0.050806
v 1.202879 0.166553 0.127006
v 1.649998 -0.106497 0.103126
v 1.443749 -0.106497 0.103126
v 1.276039 -0.106497 0.127006
v 1.276039 -0.106497 0.050806
v 1.443749 -0.106497 0.050806
v 1.649998 -0.106497 0.050806
v 1.213089 0.128453 0.127006
v 1.265829 -0.068397 0.127006
v 1.649994 0.128453 0.060330
v 1.443744 0.128453 0.060330
v 1.213089 0.128453 0.060326
v 1.265829 -0.068397 0.060326
v 1.443744 -0.068397 0.060330
v 1.649994 -0.068397 0.060330
v 1.776998 0.166553 -0.126994
v 1.776998 0.128453 -0.060314
v 1.776998 0.128453 -0.126994
v 1.776998 0.166553 -0.050794
v 1.776998 -0.068397 -0.060314
v 1.776998 -0.106497 -0.126994
v 1.776998 -0.068397 -0.126994
v 1.776998 -0.106497 -0.050794
v 1.649998 0.166553 -0.103114
v 1.443749 0.166553 -0.103114
v 1.202879 0.166553 -0.126994
v 1.202879 0.166553 -0.050794
v 1.443749 0.166553 -0.050794
v 1.649998 0.166553 -0.050794
v 1.443749 -0.106497 -0.050794
v 1.276039 -0.106497 -0.050794
v 1.443749 -0.106497 -0.103114
v 1.649998 -0.106497 -0.103114
v 1.649998 -0.106497 -0.050794
v 1.276039 -0.106497 -0.126994
v 1.213089 0.128453 -0.126994
v 1.265829 -0.068397 -0.126994
v 1.213089 0.128453 -0.060314
v 1.443749 0.128453 -0.060310
v 1.649998 0.128453 -0.060310
v 1.649998 -0.068397 -0.060310
v 1.443749 -0.068397 -0.060310
v 1.265829 -0.068397 -0.060314
v 0.702813 0.050151 0.050806
v 0.913950 -0.315550 -0.050794
v 0.702813 0.050151 -0.050794
v 0.913950 -0.315550 0.050806
v 0.684115 0.039356 -0.050794
v 0.684115 0.039356 0.050806
v 0.828162 -0.365080 0.050806
v 0.828162 -0.365080 -0.050794
v 0.653537 -0.062621 -0.050794
v 0.653537 -0.062621 0.050806
v 0.720628 -0.023886 -0.050794
v 0.720628 -0.023886 0.050806
v -0.284495 -0.774699 0.050806
v -0.394839 -0.583578 -0.050794
v -0.284495 -0.774699 -0.050794
v -0.394839 -0.583578 0.050806
v -0.376141 -0.572783 0.050806
v -0.376141 -0.572783 -0.050794
v -0.272538 -0.597290 0.050806
v -0.170110 -0.774699 -0.050794
v -0.272538 -0.597290 -0.050794
v -0.170110 -0.774699 0.050806
v -0.339629 -0.636025 -0.050794
v -0.339629 -0.636025 0.050806
v -0.427420 -0.774699 0.050806
v -0.427420 -0.774699 0.127006
v 0.118680 -0.774699 0.127006
v 0.118680 -0.774699 0.050806
v -0.351220 -0.774699 0.127006
v 0.042480 -0.774699 0.127006
v -0.351220 -0.774699 0.060326
v 0.042480 -0.774699 0.060326
v -0.427420 -0.774699 -0.126994
v -0.427420 -0.774699 -0.050794
v 0.118680 -0.774699 -0.050794
v 0.118680 -0.774699 -0.126994
v -0.351220 -0.774699 -0.126994
v 0.042480 -0.774699 -0.126994
v -0.351220 -0.774699 -0.060314
v 0.042480 -0.774699 -0.060314
v 1.649998 0.484053 -0.103114
v 1.649998 0.484053 0.103126
v 1.649998 -1.094619 -0.103114
v 1.649998 -1.094619 0.103126
v 1.443749 0.484053 -0.103114
v 1.443749 0.484053 0.103126
v 1.443749 -1.094619 0.103126
v 1.443749 -1.094619 -0.103114
v -1.443749 -0.457200 -0.103114
v -1.443749 -0.457200 0.103126
v -1.443749 -1.094619 -0.103114
v -1.443749 -1.094619 0.103126
v -1.649998 -0.457200 -0.103114
v -1.649998 -0.457200 0.103126
v -1.649998 -1.094619 0.103126
v -1.649998 -1.094619 -0.103114
v 1.598436 0.484053 -0.051554
v 1.598436 0.484053 0.051566
v 1.495311 0.484053 -0.051554
v 1.495311 0.484053 0.051566
v -1.598436 -0.457200 -0.051554
v -1.598436 -0.457200 0.051566
v -1.495311 -0.457200 0.051566
v -1.495311 -0.457200 -0.051554
vn 1.0000 0.0000 0.0000
vn 0.0000 -1.0000 0.0000
vn -1.0000 0.0000 0.0000
vn 0.0000 0.0000 -1.0000
vn 0.0000 0.0000 1.0000
vn 0.0000 1.0000 0.0000
vn 0.8660 0.5000 0.0000
vn -0.5000 0.8660 0.0000
vn 0.5000 -0.8660 0.0000
vn -0.8660 -0.5000 0.0000
usemtl Remap2_NoAO_Wood
s off
f 95//1 16//1 100//1
f 16//1 95//1 15//1
f 177//1 122//1 117//1
f 100//1 127//1 122//1
f 127//1 100//1 57//1
f 100//1 122//1 93//1
f 177//1 93//1 122//1
f 178//1 93//1 177//1
f 93//1 178//1 92//1
f 127//1 49//1 126//1
f 49//1 127//1 57//1
f 66//1 179//1 65//1
f 16//1 57//1 100//1
f 57//1 16//1 66//1
f 27//1 66//1 16//1
f 27//1 179//1 66//1
f 180//1 27//1 19//1
f 27//1 180//1 179//1
f 183//2 179//2 180//2
f 179//2 183//2 184//2
f 14//3 99//3 12//3
f 99//3 14//3 96//3
f 184//3 62//3 64//3
f 12//3 52//3 62//3
f 52//3 12//3 123//3
f 12//3 62//3 22//3
f 184//3 22//3 62//3
f 183//3 22//3 184//3
f 22//3 183//3 20//3
f 52//3 125//3 50//3
f 125//3 52//3 123//3
f 121//3 181//3 118//3
f 99//3 123//3 12//3
f 123//3 99//3 121//3
f 89//3 121//3 99//3
f 121//3 89//3 181//3
f 182//3 89//3 91//3
f 89//3 182//3 181//3
f 117//4 181//4 177//4
f 181//4 117//4 118//4
f 179//4 64//4 65//4
f 64//4 179//4 184//4
f 49//4 125//4 126//4
f 125//4 49//4 50//4
f 91//5 178//5 182//5
f 178//5 91//5 92//5
f 183//5 19//5 20//5
f 19//5 183//5 180//5
f 14//5 95//5 96//5
f 95//5 14//5 15//5
f 185//1 58//1 51//1
f 58//1 13//1 63//1
f 185//1 13//1 58//1
f 186//1 13//1 185//1
f 13//1 186//1 17//1
f 63//1 187//1 67//1
f 28//1 63//1 13//1
f 28//1 187//1 63//1
f 188//1 28//1 21//1
f 28//1 188//1 187//1
f 191//2 187//2 188//2
f 187//2 191//2 192//2
f 192//3 59//3 61//3
f 59//3 26//3 56//3
f 192//3 26//3 59//3
f 191//3 26//3 192//3
f 26//3 191//3 24//3
f 56//3 189//3 54//3
f 9//3 56//3 26//3
f 56//3 9//3 189//3
f 190//3 9//3 11//3
f 9//3 190//3 189//3
f 51//4 189//4 185//4
f 189//4 51//4 54//4
f 187//4 61//4 67//4
f 61//4 187//4 192//4
f 11//5 186//5 190//5
f 186//5 11//5 17//5
f 191//5 21//5 24//5
f 21//5 191//5 188//5
usemtl Remap2_NoAO_DarkEdge_Wood
f 182//6 195//6 181//6
f 177//6 194//6 178//6
f 189//6 200//6 185//6
f 190//6 197//6 189//6
f 181//6 193//6 177//6
f 178//6 196//6 182//6
f 185//6 199//6 186//6
f 186//6 198//6 190//6
f 182//6 196//6 195//6
f 177//6 193//6 194//6
f 189//6 197//6 200//6
f 190//6 198//6 197//6
f 181//6 195//6 193//6
f 178//6 194//6 196//6
f 185//6 200//6 199//6
f 186//6 199//6 198//6
usemtl Remap2_NoAO_DarkEdge_Top
f 195//6 194//6 193//6
f 194//6 195//6 196//6
f 197//6 199//6 200//6
f 199//6 197//6 198//6
usemtl Tie
f 1//1 2//1 3//1
f 4//1 2//1 1//1
f 2//1 4//1 5//1
f 6//1 3//1 2//1
f 7//1 6//1 8//1
f 6//1 7//1 3//1
f 9//6 10//6 11//6
f 12//6 13//6 14//6
f 15//6 1//6 16//6
f 1//6 15//6 4//6
f 14//6 4//6 15//6
f 17//6 14//6 13//6
f 14//6 17//6 4//6
f 18//6 17//6 11//6
f 17//6 18//6 4//6
f 18//6 11//6 10//6
f 7//2 19//2 3//2
f 7//2 20//2 19//2
f 20//2 21//2 22//2
f 7//2 21//2 20//2
f 23//2 21//2 7//2
f 21//2 23//2 24//2
f 25//2 24//2 23//2
f 24//2 25//2 26//2
f 3//2 19//2 27//2
f 22//2 21//2 28//2
f 25//3 29//3 10//3
f 23//3 29//3 25//3
f 29//3 23//3 30//3
f 31//3 10//3 29//3
f 18//3 31//3 32//3
f 31//3 18//3 10//3
f 26//4 10//4 9//4
f 10//4 26//4 25//4
f 3//4 16//4 1//4
f 16//4 3//4 27//4
f 32//5 4//5 18//5
f 4//5 32//5 5//5
f 23//5 8//5 30//5
f 8//5 23//5 7//5
f 5//2 33//2 2//2
f 5//2 34//2 33//2
f 5//2 35//2 34//2
f 32//2 35//2 5//2
f 35//2 32//2 36//2
f 31//2 36//2 32//2
f 6//6 39//6 8//6
f 38//6 8//6 39//6
f 38//6 40//6 8//6
f 30//6 40//6 37//6
f 40//6 30//6 8//6
f 30//6 37//6 29//6
f 41//1 42//1 43//1
f 42//1 44//1 45//1
f 44//1 42//1 41//1
f 45//1 46//1 47//1
f 45//1 48//1 46//1
f 48//1 45//1 44//1
f 41//6 49//6 44//6
f 41//6 50//6 49//6
f 50//6 51//6 52//6
f 41//6 51//6 50//6
f 53//6 51//6 41//6
f 51//6 53//6 54//6
f 55//6 54//6 53//6
f 54//6 55//6 56//6
f 44//6 49//6 57//6
f 52//6 51//6 58//6
f 59//2 60//2 61//2
f 62//2 63//2 64//2
f 65//2 48//2 66//2
f 48//2 65//2 46//2
f 64//2 46//2 65//2
f 67//2 64//2 63//2
f 64//2 67//2 46//2
f 68//2 67//2 61//2
f 67//2 68//2 46//2
f 68//2 61//2 60//2
f 68//3 69//3 70//3
f 69//3 60//3 71//3
f 60//3 69//3 68//3
f 71//3 53//3 72//3
f 71//3 55//3 53//3
f 55//3 71//3 60//3
f 60//5 56//5 55//5
f 56//5 60//5 59//5
f 66//5 44//5 57//5
f 44//5 66//5 48//5
f 43//4 53//4 41//4
f 53//4 43//4 72//4
f 46//4 70//4 47//4
f 70//4 46//4 68//4
f 42//2 75//2 43//2
f 74//2 43//2 75//2
f 74//2 76//2 43//2
f 72//2 76//2 73//2
f 76//2 72//2 43//2
f 72//2 73//2 71//2
f 47//6 80//6 45//6
f 47//6 77//6 80//6
f 47//6 78//6 77//6
f 70//6 78//6 47//6
f 78//6 70//6 79//6
f 69//6 79//6 70//6
f 81//1 82//1 83//1
f 84//1 82//1 81//1
f 82//1 84//1 85//1
f 86//1 83//1 82//1
f 87//1 86//1 88//1
f 86//1 87//1 83//1
f 89//6 90//6 91//6
f 92//6 81//6 93//6
f 81//6 92//6 84//6
f 91//6 84//6 92//6
f 91//6 94//6 84//6
f 94//6 91//6 90//6
f 87//2 95//2 83//2
f 87//2 96//2 95//2
f 97//2 96//2 87//2
f 98//2 96//2 97//2
f 96//2 98//2 99//2
f 83//2 95//2 100//2
f 83//4 93//4 81//4
f 93//4 83//4 100//4
f 101//5 84//5 94//5
f 84//5 101//5 85//5
f 102//5 97//5 88//5
f 88//5 97//5 87//5
f 85//2 103//2 82//2
f 85//2 104//2 103//2
f 101//2 104//2 85//2
f 105//2 104//2 101//2
f 86//6 108//6 88//6
f 107//6 88//6 108//6
f 107//6 102//6 88//6
f 102//6 107//6 106//6
f 109//1 110//1 111//1
f 110//1 112//1 113//1
f 112//1 110//1 109//1
f 113//1 114//1 115//1
f 113//1 116//1 114//1
f 116//1 113//1 112//1
f 109//6 117//6 112//6
f 109//6 118//6 117//6
f 119//6 118//6 109//6
f 120//6 118//6 119//6
f 118//6 120//6 121//6
f 112//6 117//6 122//6
f 123//2 124//2 125//2
f 126//2 116//2 127//2
f 116//2 126//2 114//2
f 125//2 114//2 126//2
f 125//2 128//2 114//2
f 128//2 125//2 124//2
f 127//5 112//5 122//5
f 112//5 127//5 116//5
f 129//4 109//4 111//4
f 109//4 129//4 119//4
f 128//4 130//4 115//4
f 128//4 115//4 114//4
f 110//2 133//2 111//2
f 132//2 111//2 133//2
f 132//2 129//2 111//2
f 129//2 132//2 131//2
f 115//6 134//6 113//6
f 115//6 135//6 134//6
f 130//6 135//6 115//6
f 136//6 135//6 130//6
f 137//7 138//7 139//7
f 138//7 137//7 140//7
f 141//8 137//8 139//8
f 137//8 141//8 142//8
f 143//9 138//9 140//9
f 138//9 143//9 144//9
f 143//10 145//10 144//10
f 145//10 143//10 146//10
f 139//4 147//4 141//4
f 138//4 147//4 139//4
f 144//4 147//4 138//4
f 147//4 144//4 145//4
f 148//5 137//5 142//5
f 148//5 140//5 137//5
f 143//5 148//5 146//5
f 148//5 143//5 140//5
f 148//10 141//10 147//10
f 141//10 148//10 142//10
f 145//8 148//8 147//8
f 148//8 145//8 146//8
f 149//10 150//10 151//10
f 150//10 149//10 152//10
f 150//8 153//8 154//8
f 153//8 150//8 152//8
f 155//7 156//7 157//7
f 156//7 155//7 158//7
f 151//4 157//4 156//4
f 159//4 150//4 154//4
f 159//4 151//4 150//4
f 157//4 151//4 159//4
f 152//5 160//5 153//5
f 160//5 152//5 149//5
f 149//5 155//5 160//5
f 155//5 149//5 158//5
f 153//7 159//7 154//7
f 159//7 153//7 160//7
f 159//8 155//8 157//8
f 155//8 159//8 160//8
f 161//8 94//8 90//8
f 94//8 161//8 162//8
f 163//9 98//9 97//9
f 98//9 163//9 164//9
f 165//5 94//5 162//5
f 94//5 165//5 101//5
f 163//5 102//5 166//5
f 102//5 163//5 97//5
f 165//9 105//9 101//9
f 105//9 165//9 167//9
f 168//8 102//8 106//8
f 102//8 168//8 166//8
f 169//8 120//8 119//8
f 120//8 169//8 170//8
f 171//9 128//9 124//9
f 128//9 171//9 172//9
f 173//4 119//4 129//4
f 119//4 173//4 169//4
f 172//4 130//4 128//4
f 130//4 172//4 174//4
f 175//9 129//9 131//9
f 129//9 175//9 173//9
f 174//8 136//8 130//8
f 136//8 174//8 176//8
f 171//2 176//2 172//2
f 171//2 175//2 176//2
f 170//2 175//2 171//2
f 169//2 175//2 170//2
f 175//2 169//2 173//2
f 172//2 176//2 174//2
f 165//2 162//2 167//2
f 168//2 163//2 166//2
f 163//2 168//2 164//2
f 167//2 164//2 168//2
f 167//2 161//2 164//2
f 161//2 167//2 162//2
f 149//2 156//2 158//2
f 156//2 149//2 151//2
usemtl TieDark
f 29//5 36//5 31//5
f 36//5 29//5 37//5
f 39//5 2//5 33//5
f 2//5 39//5 6//5
f 40//5 34//5 35//5
f 34//5 40//5 38//5
f 79//4 71//4 73//4
f 71//4 79//4 69//4
f 45//4 75//4 42//4
f 75//4 45//4 80//4
f 77//4 76//4 74//4
f 76//4 77//4 78//4
f 106//5 104//5 105//5
f 104//5 106//5 107//5
f 108//5 82//5 103//5
f 82//5 108//5 86//5
f 136//4 132//4 135//4
f 132//4 136//4 131//4
f 113//4 133//4 110//4
f 133//4 113//4 134//4
f 168//5 105//5 167//5
f 105//5 168//5 106//5
f 176//4 131//4 136//4
f 131//4 176//4 175//4
f 80//4 74//4 75//4
f 74//4 80//4 77//4
f 134//4 132//4 133//4
f 132//4 134//4 135//4
f 38//5 33//5 34//5
f 33//5 38//5 39//5
f 107//5 103//5 104//5
f 103//5 107//5 108//5
f 78//4 73//4 76//4
f 73//4 78//4 79//4
f 37//5 35//5 36//5
f 35//5 37//5 40//5
usemtl TieInside
f 22//4 13//4 12//4
f 13//4 22//4 28//4
f 63//5 52//5 58//5
f 52//5 63//5 62//5
f 98//4 89//4 99//4
f 89//4 98//4 90//4
f 124//5 121//5 120//5
f 121//5 124//5 123//5
f 164//4 90//4 98//4
f 90//4 164//4 161//4
f 171//5 120//5 170//5
f 120//5 171//5 124//5
