# Blender v2.79 (sub 7) OBJ File: 'rmcnew.blend'
# www.blender.org
mtllib rmc_master.mtl
v -1.000000 2.000000 0.206250
v -1.000000 0.100000 0.000000
v -1.000000 0.100000 0.206250
v -1.000000 2.000000 0.000000
v 1.000000 0.100000 0.000000
v 1.000000 2.000000 1.443750
v 1.000000 0.100000 1.650000
v 1.000000 0.100000 1.443750
v 1.000000 2.000000 1.650000
v -1.000000 0.100000 1.650000
v -1.000000 0.100000 1.443750
v -1.000000 2.000000 1.443750
v -1.000000 2.000000 0.618750
v 1.000000 2.000000 0.825000
v 1.000000 2.000000 0.618750
v 1.000000 0.100000 0.618750
v -1.000000 0.100000 0.825000
v -1.000000 0.100000 0.618750
v 1.000000 0.100000 0.825000
v -1.000000 2.000000 1.031250
v -1.000000 0.100000 1.031250
v -1.000000 0.100000 1.237500
v 1.000000 2.000000 0.206250
v 1.000000 0.100000 0.412500
v 1.000000 0.100000 0.206250
v -1.000000 0.100000 0.412500
v 1.000000 2.000000 0.412500
v 1.000000 2.000000 1.237500
v 1.000000 2.000000 1.031250
v 1.000000 0.100000 1.031250
v 1.000000 0.100000 1.237500
v 1.000000 2.000000 0.000000
v -1.000000 2.000000 0.412500
v -1.000000 2.000000 0.825000
v -1.000000 2.000000 1.237500
v -1.000000 2.000000 1.650000
vn -1.0000 0.0000 0.0000
vn 0.0000 0.0000 -1.0000
vn 1.0000 0.0000 0.0000
vn 0.0000 -0.0000 1.0000
vn 0.0000 -1.0000 -0.0000
vn 0.0000 1.0000 0.0000
usemtl VisibleMask
s 1
f 1//1 2//1 3//1
f 4//2 5//2 2//2
f 6//3 7//3 8//3
f 9//4 10//4 7//4
f 8//5 10//5 11//5
f 12//6 9//6 6//6
f 13//6 14//6 15//6
f 16//5 17//5 18//5
f 15//3 19//3 16//3
f 20//1 17//1 21//1
f 12//1 22//1 11//1
f 23//3 24//3 25//3
f 25//5 26//5 3//5
f 1//6 27//6 23//6
f 20//6 28//6 29//6
f 30//5 22//5 21//5
f 29//3 31//3 30//3
f 13//1 26//1 18//1
f 4//6 23//6 32//6
f 5//5 3//5 2//5
f 32//3 25//3 5//3
f 33//1 3//1 26//1
f 34//1 18//1 17//1
f 27//3 16//3 24//3
f 24//5 18//5 26//5
f 33//6 15//6 27//6
f 14//3 30//3 19//3
f 19//5 21//5 17//5
f 34//6 29//6 14//6
f 35//1 21//1 22//1
f 36//1 11//1 10//1
f 35//6 6//6 28//6
f 31//5 11//5 22//5
f 28//3 8//3 31//3
f 1//1 4//1 2//1
f 4//2 32//2 5//2
f 6//3 9//3 7//3
f 9//4 36//4 10//4
f 8//5 7//5 10//5
f 12//6 36//6 9//6
f 13//6 34//6 14//6
f 16//5 19//5 17//5
f 15//3 14//3 19//3
f 20//1 34//1 17//1
f 12//1 35//1 22//1
f 23//3 27//3 24//3
f 25//5 24//5 26//5
f 1//6 33//6 27//6
f 20//6 35//6 28//6
f 30//5 31//5 22//5
f 29//3 28//3 31//3
f 13//1 33//1 26//1
f 4//6 1//6 23//6
f 5//5 25//5 3//5
f 32//3 23//3 25//3
f 33//1 1//1 3//1
f 34//1 13//1 18//1
f 27//3 15//3 16//3
f 24//5 16//5 18//5
f 33//6 13//6 15//6
f 14//3 29//3 30//3
f 19//5 30//5 21//5
f 34//6 20//6 29//6
f 35//1 20//1 21//1
f 36//1 12//1 11//1
f 35//6 12//6 6//6
f 31//5 8//5 11//5
f 28//3 6//3 8//3
