# Blender v2.79 (sub 7) OBJ File: 'rmcnew.blend'
# www.blender.org
mtllib rmc_master.mtl
v 1.776998 -0.774699 0.050802
v 1.776998 -0.812799 0.060332
v 1.776998 -1.047749 0.050802
v 1.776998 -0.774699 0.127002
v 1.776998 -0.812799 0.127002
v 1.776998 -1.009649 0.060332
v 1.776998 -1.047749 0.127002
v 1.776998 -1.009649 0.127002
v -1.649998 -0.774699 0.050802
v -1.776998 -0.774699 0.050802
v -1.649998 -0.774699 0.103122
v 1.443749 -0.774699 0.050802
v -1.443749 -0.774699 0.050802
v 1.443749 -0.774699 0.103122
v 1.649998 -0.774699 0.103122
v 1.649998 -0.774699 0.050802
v -1.443749 -0.774699 0.103122
v -1.776998 -0.774699 0.127002
v 1.649998 -1.047749 0.103122
v 1.443749 -1.047749 0.103122
v -1.443749 -1.047749 0.103122
v 1.443749 -1.047749 0.050802
v -1.776998 -1.047749 0.127002
v -1.649998 -1.047749 0.103122
v -1.776998 -1.047749 0.050802
v -1.649998 -1.047749 0.050802
v 1.649998 -1.047749 0.050802
v -1.443749 -1.047749 0.050802
v -1.776998 -1.009649 0.060332
v -1.776998 -1.009649 0.127002
v -1.776998 -0.812799 0.060332
v -1.776998 -0.812799 0.127002
v 1.443749 -0.812799 0.060332
v -1.649998 -0.812799 0.060330
v 1.649998 -0.812799 0.060332
v -1.443749 -0.812799 0.060332
v -1.649998 -1.009649 0.060332
v 1.443749 -1.009649 0.060332
v -1.443749 -1.009649 0.060332
v 1.649998 -1.009649 0.060332
v 1.776998 -0.774699 -0.126998
v 1.776998 -0.812799 -0.060328
v 1.776998 -0.812799 -0.126998
v 1.776998 -0.774699 -0.050798
v 1.776998 -1.009649 -0.060328
v 1.776998 -1.047749 -0.126998
v 1.776998 -1.009649 -0.126998
v 1.776998 -1.047749 -0.050798
v 1.649998 -0.774699 -0.103118
v 1.443749 -0.774699 -0.103118
v -1.443749 -0.774699 -0.103118
v 1.443749 -0.774699 -0.050798
v -1.776998 -0.774699 -0.126998
v -1.649998 -0.774699 -0.103118
v -1.776998 -0.774699 -0.050798
v -1.649998 -0.774699 -0.050798
v 1.649998 -0.774699 -0.050798
v -1.443749 -0.774699 -0.050798
v -1.649998 -1.047749 -0.050798
v -1.776998 -1.047749 -0.050798
v -1.649998 -1.047749 -0.103118
v 1.443749 -1.047749 -0.050798
v -1.443749 -1.047749 -0.050798
v 1.443749 -1.047749 -0.103118
v 1.649998 -1.047749 -0.103118
v 1.649998 -1.047749 -0.050798
v -1.443749 -1.047749 -0.103118
v -1.776998 -1.047749 -0.126998
v -1.776998 -1.009649 -0.060328
v -1.776998 -1.009649 -0.126998
v -1.776998 -0.812799 -0.060328
v -1.776998 -0.812799 -0.126998
v -1.649998 -0.812799 -0.060330
v 1.443749 -0.812799 -0.060328
v -1.443749 -0.812799 -0.060328
v 1.649998 -0.812799 -0.060330
v -1.495311 -0.457200 -0.051558
v 1.443749 -1.009649 -0.060330
v -1.598436 -0.457200 -0.051558
v -1.598436 -0.457200 0.051562
v -1.649998 -1.009649 -0.060330
v -1.495311 -0.457200 0.051562
v 1.649998 -1.009649 -0.060328
v -1.443749 -1.009649 -0.060328
v 1.777788 0.019156 0.050802
v 1.787648 -0.017645 0.060332
v 1.848458 -0.244590 0.050802
v 1.777788 0.019156 0.127002
v 1.787648 -0.017645 0.127002
v 1.838598 -0.207788 0.060332
v 1.848458 -0.244590 0.127002
v 1.838598 -0.207788 0.127002
v 1.443749 -0.070348 0.050802
v -1.184929 -0.774699 0.050802
v 1.443749 -0.070348 0.103122
v 1.649998 -0.015084 0.103122
v 1.649998 -0.015084 0.050802
v -1.184929 -0.774699 0.127002
v 1.649998 -0.297766 0.103122
v 1.443749 -0.353031 0.103122
v -0.129942 -0.774699 0.127002
v -0.129942 -0.774699 0.050802
v 1.443749 -0.353031 0.050802
v 1.649998 -0.297766 0.050802
v -1.037719 -0.774699 0.127002
v -0.277149 -0.774699 0.127002
v 1.443749 -0.109792 0.060332
v -1.037719 -0.774699 0.060332
v 1.649998 -0.054528 0.060332
v 1.443749 -0.313587 0.060332
v -0.277149 -0.774699 0.060332
v 1.649998 -0.258322 0.060330
v 1.777788 0.019156 -0.126998
v 1.787648 -0.017645 -0.060328
v 1.787648 -0.017645 -0.126998
v 1.777788 0.019156 -0.050798
v 1.838598 -0.207788 -0.060328
v 1.848458 -0.244590 -0.126998
v 1.838598 -0.207788 -0.126998
v 1.848458 -0.244590 -0.050798
v 1.649998 -0.015084 -0.103118
v 1.443749 -0.070348 -0.103118
v -1.184929 -0.774699 -0.126998
v 1.443749 -0.070348 -0.050798
v -1.184929 -0.774699 -0.050798
v 1.649998 -0.015084 -0.050798
v 1.443749 -0.353031 -0.050798
v -0.129942 -0.774699 -0.050798
v 1.443749 -0.353031 -0.103118
v 1.649998 -0.297766 -0.103118
v 1.649998 -0.297766 -0.050798
v -0.129942 -0.774699 -0.126998
v -1.037719 -0.774699 -0.126998
v -0.277149 -0.774699 -0.126998
v 1.443749 -0.109792 -0.060328
v -1.037719 -0.774699 -0.060328
v 1.598436 0.304800 0.051562
v 1.649998 -0.054528 -0.060330
v 1.598436 0.304800 -0.051558
v 1.649998 -0.258322 -0.060330
v 1.495311 0.304800 0.051562
v -0.277149 -0.774699 -0.060328
v 1.443749 -0.313587 -0.060328
v 1.495311 0.304800 -0.051558
v 0.573513 -0.149038 0.050802
v 0.682806 -0.556924 -0.050798
v 0.573513 -0.149038 -0.050798
v 0.682806 -0.556924 0.050802
v 0.552659 -0.154626 -0.050798
v 0.552659 -0.154626 0.050802
v 0.587121 -0.582562 0.050802
v 0.587121 -0.582562 -0.050798
v 0.496730 -0.245214 -0.050798
v 0.496730 -0.245214 0.050802
v 0.571559 -0.225163 -0.050798
v 0.571559 -0.225163 0.050802
v -0.571011 -0.774699 0.050802
v -0.650757 -0.477081 -0.050798
v -0.571011 -0.774699 -0.050798
v -0.650757 -0.477081 0.050802
v -0.629903 -0.471493 0.050802
v -0.629903 -0.471493 -0.050798
v -0.536174 -0.521978 0.050802
v -0.468457 -0.774699 -0.050798
v -0.536174 -0.521978 -0.050798
v -0.468457 -0.774699 0.050802
v -0.611003 -0.542030 -0.050798
v -0.611003 -0.542030 0.050802
v -1.443749 -0.457200 -0.103118
v -1.443749 -0.457200 0.103122
v -1.443749 -1.094619 -0.103118
v -1.443749 -1.094619 0.103122
v -1.649998 -0.457200 -0.103118
v -1.649998 -0.457200 0.103122
v -1.649998 -1.094619 0.103122
v -1.649998 -1.094619 -0.103118
v 1.649998 0.304800 -0.103118
v 1.649998 0.304800 0.103122
v 1.649998 -1.094619 -0.103118
v 1.649998 -1.094619 0.103122
v 1.443749 0.304800 -0.103118
v 1.443749 0.304800 0.103122
v 1.443749 -1.094619 0.103122
v 1.443749 -1.094619 -0.103118
vn 1.0000 0.0000 0.0000
vn 0.0000 -1.0000 0.0000
vn -1.0000 0.0000 0.0000
vn 0.0000 0.0000 -1.0000
vn 0.0000 0.0000 1.0000
vn 0.0000 1.0000 0.0000
vn 0.9659 0.2588 0.0001
vn 0.9659 0.2588 0.0000
vn 0.9659 0.2588 -0.0001
vn -0.2588 0.9659 0.0000
vn 0.2588 -0.9659 0.0000
vn 0.2588 -0.9659 -0.0001
vn 0.2588 -0.9659 0.0001
vn -0.9659 -0.2588 0.0000
usemtl Remap2_NoAO_Wood
s off
f 169//1 58//1 51//1
f 58//1 13//1 63//1
f 169//1 13//1 58//1
f 170//1 13//1 169//1
f 13//1 170//1 17//1
f 63//1 171//1 67//1
f 28//1 63//1 13//1
f 28//1 171//1 63//1
f 172//1 28//1 21//1
f 28//1 172//1 171//1
f 175//2 171//2 172//2
f 171//2 175//2 176//2
f 176//3 59//3 61//3
f 59//3 26//3 56//3
f 176//3 26//3 59//3
f 175//3 26//3 176//3
f 26//3 175//3 24//3
f 56//3 173//3 54//3
f 9//3 56//3 26//3
f 56//3 9//3 173//3
f 174//3 9//3 11//3
f 9//3 174//3 173//3
f 51//4 173//4 169//4
f 173//4 51//4 54//4
f 171//4 61//4 67//4
f 61//4 171//4 176//4
f 11//5 170//5 174//5
f 170//5 11//5 17//5
f 175//5 21//5 24//5
f 21//5 175//5 172//5
f 99//1 16//1 104//1
f 16//1 99//1 15//1
f 177//1 126//1 121//1
f 104//1 131//1 126//1
f 131//1 104//1 57//1
f 104//1 126//1 97//1
f 177//1 97//1 126//1
f 178//1 97//1 177//1
f 97//1 178//1 96//1
f 131//1 49//1 130//1
f 49//1 131//1 57//1
f 66//1 179//1 65//1
f 16//1 57//1 104//1
f 57//1 16//1 66//1
f 27//1 66//1 16//1
f 27//1 179//1 66//1
f 180//1 27//1 19//1
f 27//1 180//1 179//1
f 183//2 179//2 180//2
f 179//2 183//2 184//2
f 14//3 103//3 12//3
f 103//3 14//3 100//3
f 184//3 62//3 64//3
f 12//3 52//3 62//3
f 52//3 12//3 127//3
f 12//3 62//3 22//3
f 184//3 22//3 62//3
f 183//3 22//3 184//3
f 22//3 183//3 20//3
f 52//3 129//3 50//3
f 129//3 52//3 127//3
f 124//3 181//3 122//3
f 127//3 12//3 103//3
f 127//3 103//3 124//3
f 93//3 124//3 103//3
f 124//3 93//3 181//3
f 182//3 93//3 95//3
f 93//3 182//3 181//3
f 121//4 181//4 177//4
f 181//4 121//4 122//4
f 179//4 64//4 65//4
f 64//4 179//4 184//4
f 49//4 129//4 130//4
f 129//4 49//4 50//4
f 182//5 96//5 178//5
f 96//5 182//5 95//5
f 183//5 19//5 20//5
f 19//5 183//5 180//5
f 15//5 100//5 14//5
f 100//5 15//5 99//5
usemtl Remap2_NoAO_DarkEdge_Wood
f 170//6 80//6 174//6
f 173//6 77//6 169//6
f 169//6 82//6 170//6
f 174//6 79//6 173//6
f 181//6 139//6 177//6
f 182//6 144//6 181//6
f 177//6 137//6 178//6
f 178//6 141//6 182//6
f 170//6 82//6 80//6
f 173//6 79//6 77//6
f 169//6 77//6 82//6
f 174//6 80//6 79//6
f 181//6 144//6 139//6
f 182//6 141//6 144//6
f 177//6 139//6 137//6
f 178//6 137//6 141//6
usemtl Remap2_NoAO_DarkEdge_Top
f 82//6 79//6 80//6
f 79//6 82//6 77//6
f 137//6 144//6 141//6
f 144//6 137//6 139//6
usemtl Tie
f 1//1 2//1 3//1
f 4//1 2//1 1//1
f 2//1 4//1 5//1
f 6//1 3//1 2//1
f 7//1 6//1 8//1
f 6//1 7//1 3//1
f 9//6 10//6 11//6
f 12//6 13//6 14//6
f 15//6 1//6 16//6
f 1//6 15//6 4//6
f 14//6 4//6 15//6
f 17//6 14//6 13//6
f 14//6 17//6 4//6
f 18//6 17//6 11//6
f 17//6 18//6 4//6
f 18//6 11//6 10//6
f 7//2 19//2 3//2
f 7//2 20//2 19//2
f 20//2 21//2 22//2
f 7//2 21//2 20//2
f 23//2 21//2 7//2
f 21//2 23//2 24//2
f 25//2 24//2 23//2
f 24//2 25//2 26//2
f 3//2 19//2 27//2
f 22//2 21//2 28//2
f 25//3 29//3 10//3
f 23//3 29//3 25//3
f 29//3 23//3 30//3
f 31//3 10//3 29//3
f 18//3 31//3 32//3
f 31//3 18//3 10//3
f 26//4 10//4 9//4
f 10//4 26//4 25//4
f 3//4 16//4 1//4
f 16//4 3//4 27//4
f 32//5 4//5 18//5
f 4//5 32//5 5//5
f 23//5 8//5 30//5
f 8//5 23//5 7//5
f 5//2 35//2 2//2
f 5//2 33//2 35//2
f 5//2 36//2 33//2
f 32//2 36//2 5//2
f 36//2 32//2 34//2
f 31//2 34//2 32//2
f 6//6 40//6 8//6
f 38//6 8//6 40//6
f 38//6 39//6 8//6
f 30//6 39//6 37//6
f 39//6 30//6 8//6
f 30//6 37//6 29//6
f 41//1 42//1 43//1
f 42//1 44//1 45//1
f 44//1 42//1 41//1
f 45//1 46//1 47//1
f 45//1 48//1 46//1
f 48//1 45//1 44//1
f 41//6 49//6 44//6
f 41//6 50//6 49//6
f 50//6 51//6 52//6
f 41//6 51//6 50//6
f 53//6 51//6 41//6
f 51//6 53//6 54//6
f 55//6 54//6 53//6
f 54//6 55//6 56//6
f 44//6 49//6 57//6
f 52//6 51//6 58//6
f 59//2 60//2 61//2
f 62//2 63//2 64//2
f 65//2 48//2 66//2
f 48//2 65//2 46//2
f 64//2 46//2 65//2
f 67//2 64//2 63//2
f 64//2 67//2 46//2
f 68//2 67//2 61//2
f 67//2 68//2 46//2
f 68//2 61//2 60//2
f 68//3 69//3 70//3
f 69//3 60//3 71//3
f 60//3 69//3 68//3
f 71//3 53//3 72//3
f 71//3 55//3 53//3
f 55//3 71//3 60//3
f 60//5 56//5 55//5
f 56//5 60//5 59//5
f 66//5 44//5 57//5
f 44//5 66//5 48//5
f 43//4 53//4 41//4
f 53//4 43//4 72//4
f 46//4 70//4 47//4
f 70//4 46//4 68//4
f 42//2 76//2 43//2
f 74//2 43//2 76//2
f 74//2 75//2 43//2
f 72//2 75//2 73//2
f 75//2 72//2 43//2
f 72//2 73//2 71//2
f 47//6 83//6 45//6
f 47//6 78//6 83//6
f 47//6 84//6 78//6
f 70//6 84//6 47//6
f 84//6 70//6 81//6
f 69//6 81//6 70//6
f 85//7 86//7 87//7
f 88//8 86//8 85//8
f 86//8 88//8 89//8
f 90//9 87//9 86//9
f 91//8 90//8 92//8
f 90//8 91//8 87//8
f 93//10 94//10 95//10
f 96//10 85//10 97//10
f 85//10 96//10 88//10
f 95//10 88//10 96//10
f 98//10 95//10 94//10
f 95//10 98//10 88//10
f 91//11 99//11 87//11
f 91//12 100//12 99//12
f 101//11 100//11 91//11
f 102//11 100//11 101//11
f 100//11 102//11 103//11
f 87//11 99//11 104//11
f 87//4 97//4 85//4
f 97//4 87//4 104//4
f 105//5 88//5 98//5
f 88//5 105//5 89//5
f 101//5 92//5 106//5
f 92//5 101//5 91//5
f 89//11 109//11 86//11
f 89//11 107//11 109//11
f 105//11 107//11 89//11
f 107//11 105//11 108//11
f 90//10 112//10 92//10
f 110//10 92//10 112//10
f 106//10 110//10 111//10
f 110//10 106//10 92//10
f 113//8 114//8 115//8
f 114//9 116//9 117//9
f 116//8 114//8 113//8
f 117//8 118//8 119//8
f 117//8 120//8 118//8
f 120//7 117//7 116//7
f 113//10 121//10 116//10
f 113//10 122//10 121//10
f 123//10 122//10 113//10
f 123//10 124//10 122//10
f 124//10 123//10 125//10
f 116//10 121//10 126//10
f 127//11 128//11 129//11
f 130//11 120//11 131//11
f 120//11 130//11 118//11
f 129//13 118//13 130//13
f 132//11 129//11 128//11
f 129//11 132//11 118//11
f 126//5 120//5 116//5
f 120//5 126//5 131//5
f 133//4 113//4 115//4
f 113//4 133//4 123//4
f 132//4 119//4 118//4
f 119//4 132//4 134//4
f 114//11 138//11 115//11
f 135//11 115//11 138//11
f 133//11 135//11 136//11
f 135//11 133//11 115//11
f 119//10 140//10 117//10
f 119//10 143//10 140//10
f 134//10 143//10 119//10
f 142//10 143//10 134//10
f 145//8 146//8 147//8
f 146//8 145//8 148//8
f 149//10 145//10 147//10
f 145//10 149//10 150//10
f 151//11 146//11 148//11
f 146//11 151//11 152//11
f 151//14 153//14 152//14
f 153//14 151//14 154//14
f 147//4 155//4 149//4
f 146//4 155//4 147//4
f 152//4 155//4 146//4
f 155//4 152//4 153//4
f 156//5 145//5 150//5
f 156//5 148//5 145//5
f 151//5 156//5 154//5
f 156//5 151//5 148//5
f 156//14 149//14 155//14
f 149//14 156//14 150//14
f 153//10 156//10 155//10
f 156//10 153//10 154//10
f 157//14 158//14 159//14
f 158//14 157//14 160//14
f 158//10 161//10 162//10
f 161//10 158//10 160//10
f 163//8 164//8 165//8
f 164//8 163//8 166//8
f 159//4 165//4 164//4
f 167//4 158//4 162//4
f 167//4 159//4 158//4
f 165//4 159//4 167//4
f 160//5 168//5 161//5
f 168//5 160//5 157//5
f 157//5 163//5 168//5
f 163//5 157//5 166//5
f 161//8 167//8 162//8
f 167//8 161//8 168//8
f 167//10 163//10 165//10
f 163//10 167//10 168//10
f 128//2 142//2 132//2
f 128//2 136//2 142//2
f 125//2 136//2 128//2
f 123//2 136//2 125//2
f 136//2 123//2 133//2
f 132//2 142//2 134//2
f 105//2 98//2 108//2
f 111//2 101//2 106//2
f 101//2 111//2 102//2
f 108//2 102//2 111//2
f 108//2 94//2 102//2
f 94//2 108//2 98//2
f 157//2 164//2 166//2
f 164//2 157//2 159//2
usemtl TieDark
f 29//5 34//5 31//5
f 34//5 29//5 37//5
f 40//5 2//5 35//5
f 2//5 40//5 6//5
f 39//5 33//5 36//5
f 33//5 39//5 38//5
f 81//4 71//4 73//4
f 71//4 81//4 69//4
f 45//4 76//4 42//4
f 76//4 45//4 83//4
f 78//4 75//4 74//4
f 75//4 78//4 84//4
f 109//5 90//5 86//5
f 90//5 109//5 112//5
f 111//5 107//5 108//5
f 107//5 111//5 110//5
f 117//4 138//4 114//4
f 138//4 117//4 140//4
f 142//4 135//4 143//4
f 135//4 142//4 136//4
f 84//4 73//4 75//4
f 73//4 84//4 81//4
f 37//5 36//5 34//5
f 36//5 37//5 39//5
f 83//4 74//4 76//4
f 74//4 83//4 78//4
f 140//4 135//4 138//4
f 135//4 140//4 143//4
f 38//5 35//5 33//5
f 35//5 38//5 40//5
f 107//5 112//5 109//5
f 112//5 107//5 110//5
usemtl TieInside
f 22//4 13//4 12//4
f 13//4 22//4 28//4
f 63//5 52//5 58//5
f 52//5 63//5 62//5
f 102//4 93//4 103//4
f 93//4 102//4 94//4
f 128//5 124//5 125//5
f 124//5 128//5 127//5
