# Blender v2.79 (sub 7) OBJ File: 'rmcnew.blend'
# www.blender.org
mtllib rmc_master.mtl
v 1.776998 -0.457200 0.050800
v 1.776998 -0.495300 0.060325
v 1.776998 -0.730249 0.050800
v 1.776998 -0.457200 0.127000
v 1.776998 -0.495300 0.127000
v 1.776998 -0.692149 0.060325
v 1.776998 -0.730249 0.127000
v 1.776998 -0.692149 0.127000
v -1.649998 -0.457200 0.050800
v -1.776998 -0.457200 0.050800
v -1.649998 -0.457200 0.103125
v 1.443749 -0.457200 0.050800
v -1.443749 -0.457200 0.050800
v 1.443749 -0.457200 0.103125
v 1.649998 -0.457200 0.103125
v 1.649998 -0.457200 0.050800
v -1.443749 -0.457200 0.103125
v -1.776998 -0.457200 0.127000
v 1.649998 -0.730249 0.103125
v 1.443749 -0.730249 0.103125
v -1.443749 -0.730249 0.103125
v 1.443749 -0.730249 0.050800
v -1.776998 -0.730249 0.127000
v -1.649998 -0.730249 0.103125
v -1.776998 -0.730249 0.050800
v -1.649998 -0.730249 0.050800
v 1.649998 -0.730249 0.050800
v -1.443749 -0.730249 0.050800
v -1.776998 -0.692149 0.060325
v -1.776998 -0.692149 0.127000
v -1.776998 -0.495300 0.060325
v -1.776998 -0.495300 0.127000
v 1.649998 -0.495300 0.060325
v 1.443749 -0.495300 0.060325
v -1.443749 -0.495300 0.060325
v -1.649998 -0.495300 0.060325
v -1.649998 -0.692149 0.060325
v 1.443749 -0.692149 0.060325
v 1.649998 -0.692149 0.060325
v -1.443749 -0.692149 0.060325
v 1.776998 -0.457200 -0.127000
v 1.776998 -0.495300 -0.060325
v 1.776998 -0.495300 -0.127000
v 1.776998 -0.457200 -0.050800
v 1.776998 -0.692149 -0.060325
v 1.776998 -0.730249 -0.127000
v 1.776998 -0.692149 -0.127000
v 1.776998 -0.730249 -0.050800
v 1.649998 -0.457200 -0.103125
v 1.443749 -0.457200 -0.103125
v -1.443749 -0.457200 -0.103125
v 1.443749 -0.457200 -0.050800
v -1.776998 -0.457200 -0.127000
v -1.649998 -0.457200 -0.103125
v -1.776998 -0.457200 -0.050800
v -1.649998 -0.457200 -0.050800
v 1.649998 -0.457200 -0.050800
v -1.443749 -0.457200 -0.050800
v -1.649998 -0.730249 -0.050800
v -1.776998 -0.730249 -0.050800
v -1.649998 -0.730249 -0.103125
v 1.443749 -0.730249 -0.050800
v -1.443749 -0.730249 -0.050800
v 1.443749 -0.730249 -0.103125
v 1.649998 -0.730249 -0.103125
v 1.649998 -0.730249 -0.050800
v -1.443749 -0.730249 -0.103125
v -1.776998 -0.730249 -0.127000
v -1.776998 -0.692149 -0.060325
v -1.776998 -0.692149 -0.127000
v -1.776998 -0.495300 -0.060325
v -1.776998 -0.495300 -0.127000
v -1.649998 -0.495300 -0.060325
v 1.443749 -0.495300 -0.060320
v 1.649998 -0.495300 -0.060320
v -1.443749 -0.495300 -0.060320
v 1.443749 -0.692149 -0.060320
v -1.649998 -0.692149 -0.060320
v 1.649998 -0.692149 -0.060325
v -1.443749 -0.692149 -0.060325
v -0.633729 -0.307975 -0.050800
v -0.534669 -0.307975 0.050800
v -0.534669 -0.307975 -0.050800
v -0.633729 -0.307975 0.050800
v -0.534669 -0.730249 -0.050800
v -0.534669 -0.730249 0.050800
v -0.633729 -0.730249 0.050800
v -0.633729 -0.730249 -0.050800
v 0.633729 -0.307975 0.050800
v 0.633729 -0.730249 -0.050800
v 0.633729 -0.307975 -0.050800
v 0.633729 -0.730249 0.050800
v 0.534669 -0.307975 -0.050800
v 0.534669 -0.307975 0.050800
v 0.534669 -0.730249 0.050800
v 0.534669 -0.730249 -0.050800
v -1.443749 -0.139700 -0.103125
v -1.443749 -0.139700 0.103125
v -1.443749 -1.094619 -0.103125
v -1.443749 -1.094619 0.103125
v -1.649998 -0.139700 -0.103125
v -1.649998 -0.139700 0.103125
v -1.649998 -1.094620 0.103125
v -1.649998 -1.094620 -0.103125
v 1.649998 -0.139700 -0.103125
v 1.649998 -0.139700 0.103125
v 1.649998 -1.094620 -0.103125
v 1.649998 -1.094620 0.103125
v 1.443749 -0.139700 -0.103125
v 1.443749 -0.139700 0.103125
v 1.443749 -1.094619 0.103125
v 1.443749 -1.094619 -0.103125
v -1.495311 -0.139700 -0.051562
v -1.495311 -0.139700 0.051562
v -1.598436 -0.139700 -0.051562
v -1.598436 -0.139700 0.051562
v 1.495311 -0.139700 -0.051562
v 1.495311 -0.139700 0.051562
v 1.598436 -0.139700 -0.051562
v 1.598436 -0.139700 0.051562
v -1.776998 -0.482600 0.127000
v 1.776998 -0.482600 0.127000
vn 1.0000 0.0000 0.0000
vn 0.0000 1.0000 0.0000
vn 0.0000 -1.0000 0.0000
vn -1.0000 0.0000 0.0000
vn 0.0000 0.0000 1.0000
vn 0.0000 0.0000 -1.0000
usemtl Tie
s off
f 1//1 2//1 3//1
f 4//1 2//1 1//1
f 2//1 4//1 5//1
f 6//1 3//1 2//1
f 7//1 6//1 8//1
f 6//1 7//1 3//1
f 9//2 10//2 11//2
f 12//2 13//2 14//2
f 15//2 1//2 16//2
f 1//2 15//2 4//2
f 14//2 4//2 15//2
f 17//2 14//2 13//2
f 14//2 17//2 4//2
f 18//2 17//2 11//2
f 17//2 18//2 4//2
f 18//2 11//2 10//2
f 7//3 19//3 3//3
f 7//3 20//3 19//3
f 20//3 21//3 22//3
f 7//3 21//3 20//3
f 23//3 21//3 7//3
f 21//3 23//3 24//3
f 25//3 24//3 23//3
f 24//3 25//3 26//3
f 3//3 19//3 27//3
f 22//3 21//3 28//3
f 25//4 29//4 10//4
f 23//4 29//4 25//4
f 29//4 23//4 30//4
f 31//4 10//4 29//4
f 18//4 31//4 32//4
f 31//4 18//4 10//4
f 32//5 4//5 18//5
f 4//5 32//5 5//5
f 23//5 8//5 30//5
f 8//5 23//5 7//5
f 5//3 33//3 2//3
f 5//3 34//3 33//3
f 5//3 35//3 34//3
f 32//3 35//3 5//3
f 35//3 32//3 36//3
f 31//3 36//3 32//3
f 6//2 39//2 8//2
f 38//2 8//2 39//2
f 38//2 40//2 8//2
f 30//2 40//2 37//2
f 40//2 30//2 8//2
f 30//2 37//2 29//2
f 41//1 42//1 43//1
f 42//1 44//1 45//1
f 44//1 42//1 41//1
f 45//1 46//1 47//1
f 45//1 48//1 46//1
f 48//1 45//1 44//1
f 41//2 49//2 44//2
f 41//2 50//2 49//2
f 50//2 51//2 52//2
f 41//2 51//2 50//2
f 53//2 51//2 41//2
f 51//2 53//2 54//2
f 55//2 54//2 53//2
f 54//2 55//2 56//2
f 44//2 49//2 57//2
f 52//2 51//2 58//2
f 59//3 60//3 61//3
f 62//3 63//3 64//3
f 65//3 48//3 66//3
f 48//3 65//3 46//3
f 64//3 46//3 65//3
f 67//3 64//3 63//3
f 64//3 67//3 46//3
f 68//3 67//3 61//3
f 67//3 68//3 46//3
f 68//3 61//3 60//3
f 68//4 69//4 70//4
f 69//4 60//4 71//4
f 60//4 69//4 68//4
f 71//4 53//4 72//4
f 71//4 55//4 53//4
f 55//4 71//4 60//4
f 43//6 53//6 41//6
f 53//6 43//6 72//6
f 46//6 70//6 47//6
f 70//6 46//6 68//6
f 42//3 75//3 43//3
f 74//3 43//3 75//3
f 74//3 76//3 43//3
f 72//3 76//3 73//3
f 76//3 72//3 43//3
f 72//3 73//3 71//3
f 47//2 79//2 45//2
f 47//2 77//2 79//2
f 47//2 80//2 77//2
f 70//2 80//2 47//2
f 80//2 70//2 78//2
f 69//2 78//2 70//2
f 81//2 82//2 83//2
f 82//2 81//2 84//2
f 82//1 85//1 83//1
f 85//1 82//1 86//1
f 87//3 85//3 86//3
f 85//3 87//3 88//3
f 85//6 81//6 83//6
f 81//6 85//6 88//6
f 87//5 82//5 84//5
f 82//5 87//5 86//5
f 87//4 81//4 88//4
f 81//4 87//4 84//4
f 89//1 90//1 91//1
f 90//1 89//1 92//1
f 93//2 89//2 91//2
f 89//2 93//2 94//2
f 95//3 90//3 92//3
f 90//3 95//3 96//3
f 95//4 93//4 96//4
f 93//4 95//4 94//4
f 90//6 93//6 91//6
f 93//6 90//6 96//6
f 95//5 89//5 94//5
f 89//5 95//5 92//5
usemtl TieDark
f 29//5 36//5 31//5
f 36//5 29//5 37//5
f 39//5 2//5 33//5
f 2//5 39//5 6//5
f 40//5 34//5 35//5
f 34//5 40//5 38//5
f 78//6 71//6 73//6
f 71//6 78//6 69//6
f 45//6 75//6 42//6
f 75//6 45//6 79//6
f 77//6 76//6 74//6
f 76//6 77//6 80//6
f 80//6 73//6 76//6
f 73//6 80//6 78//6
f 37//5 35//5 36//5
f 35//5 37//5 40//5
f 79//6 74//6 75//6
f 74//6 79//6 77//6
f 38//5 33//5 34//5
f 33//5 38//5 39//5
usemtl Remap2_NoAO_Wood
f 97//1 58//1 51//1
f 58//1 13//1 63//1
f 97//1 13//1 58//1
f 98//1 13//1 97//1
f 13//1 98//1 17//1
f 63//1 99//1 67//1
f 28//1 63//1 13//1
f 63//1 28//1 99//1
f 100//1 28//1 21//1
f 28//1 100//1 99//1
f 103//3 99//3 100//3
f 99//3 103//3 104//3
f 104//4 59//4 61//4
f 59//4 26//4 56//4
f 104//4 26//4 59//4
f 103//4 26//4 104//4
f 26//4 103//4 24//4
f 56//4 101//4 54//4
f 9//4 56//4 26//4
f 56//4 9//4 101//4
f 102//4 9//4 11//4
f 9//4 102//4 101//4
f 51//6 101//6 97//6
f 101//6 51//6 54//6
f 99//6 61//6 67//6
f 61//6 99//6 104//6
f 11//5 98//5 102//5
f 98//5 11//5 17//5
f 103//5 21//5 24//5
f 21//5 103//5 100//5
f 105//1 57//1 49//1
f 57//1 16//1 66//1
f 105//1 16//1 57//1
f 106//1 16//1 105//1
f 16//1 106//1 15//1
f 66//1 107//1 65//1
f 27//1 66//1 16//1
f 66//1 27//1 107//1
f 108//1 27//1 19//1
f 27//1 108//1 107//1
f 111//3 107//3 108//3
f 107//3 111//3 112//3
f 112//4 62//4 64//4
f 62//4 22//4 52//4
f 112//4 22//4 62//4
f 111//4 22//4 112//4
f 22//4 111//4 20//4
f 52//4 109//4 50//4
f 12//4 52//4 22//4
f 52//4 12//4 109//4
f 110//4 12//4 14//4
f 12//4 110//4 109//4
f 49//6 109//6 105//6
f 109//6 49//6 50//6
f 107//6 64//6 65//6
f 64//6 107//6 112//6
f 14//5 106//5 110//5
f 106//5 14//5 15//5
f 111//5 19//5 20//5
f 19//5 111//5 108//5
usemtl Remap2_NoAO_DarkEdge_Top
f 115//2 114//2 113//2
f 114//2 115//2 116//2
f 117//2 120//2 119//2
f 120//2 117//2 118//2
usemtl Remap2_NoAO_DarkEdge_Wood
f 98//2 116//2 102//2
f 101//2 113//2 97//2
f 109//2 119//2 105//2
f 110//2 117//2 109//2
f 97//2 114//2 98//2
f 102//2 115//2 101//2
f 105//2 120//2 106//2
f 106//2 118//2 110//2
f 98//2 114//2 116//2
f 101//2 115//2 113//2
f 109//2 117//2 119//2
f 110//2 118//2 117//2
f 97//2 113//2 114//2
f 102//2 116//2 115//2
f 105//2 119//2 120//2
f 106//2 120//2 118//2
usemtl TieInside
f 26//6 10//6 9//6
f 10//6 26//6 25//6
f 3//6 16//6 1//6
f 16//6 3//6 27//6
f 22//6 13//6 12//6
f 13//6 22//6 28//6
f 60//5 56//5 55//5
f 56//5 60//5 59//5
f 66//5 44//5 57//5
f 44//5 66//5 48//5
f 63//5 52//5 58//5
f 52//5 63//5 62//5
