# Blender v2.79 (sub 7) OBJ File: 'lim.blend'
# www.blender.org
mtllib lim_mask.mtl
v -0.750000 0.100000 1.100000
v -0.750000 1.500000 1.100000
v -0.750000 0.100000 0.000000
v -0.750000 1.500000 0.000000
v 0.750000 0.100000 1.100000
v 0.750000 1.500000 1.100000
v 0.750000 0.100000 0.000000
v 0.750000 1.500000 0.000000
v -0.750000 0.100000 0.275000
v -0.750000 0.100000 0.550000
v -0.750000 0.100000 0.825000
v -0.750000 1.500000 0.825000
v -0.750000 1.500000 0.550000
v -0.750000 1.500000 0.275000
v 0.750000 0.100000 0.825000
v 0.750000 0.100000 0.550000
v 0.750000 0.100000 0.275000
v 0.750000 1.500000 0.275000
v 0.750000 1.500000 0.550000
v 0.750000 1.500000 0.825000
vn -1.0000 0.0000 0.0000
vn 0.0000 0.0000 -1.0000
vn 1.0000 0.0000 0.0000
vn 0.0000 0.0000 1.0000
vn 0.0000 -1.0000 0.0000
vn 0.0000 1.0000 0.0000
usemtl VisibleMask
s off
f 14//1 3//1 9//1
f 4//2 7//2 3//2
f 20//3 5//3 15//3
f 6//4 1//4 5//4
f 15//5 1//5 11//5
f 12//6 6//6 20//6
f 4//6 18//6 8//6
f 14//6 19//6 18//6
f 13//6 20//6 19//6
f 7//5 9//5 3//5
f 17//5 10//5 9//5
f 16//5 11//5 10//5
f 8//3 17//3 7//3
f 18//3 16//3 17//3
f 19//3 15//3 16//3
f 2//1 11//1 1//1
f 12//1 10//1 11//1
f 13//1 9//1 10//1
f 14//1 4//1 3//1
f 4//2 8//2 7//2
f 20//3 6//3 5//3
f 6//4 2//4 1//4
f 15//5 5//5 1//5
f 12//6 2//6 6//6
f 4//6 14//6 18//6
f 14//6 13//6 19//6
f 13//6 12//6 20//6
f 7//5 17//5 9//5
f 17//5 16//5 10//5
f 16//5 15//5 11//5
f 8//3 18//3 17//3
f 18//3 19//3 16//3
f 19//3 20//3 15//3
f 2//1 12//1 11//1
f 12//1 13//1 10//1
f 13//1 14//1 9//1
