# Blender v2.79 (sub 7) OBJ File: 'raptor.blend'
# www.blender.org
mtllib raptor_master.mtl
v 0.825000 0.010000 0.412499
v -0.825000 0.010000 0.000000
v -0.825000 0.010000 0.412499
v 0.825000 0.010000 1.237498
v -0.825000 0.010000 0.824999
v -0.825000 0.010000 1.237498
v 0.825000 0.010000 1.649997
v -0.825000 0.010000 1.649997
v 0.825000 0.010000 0.824999
v 0.825000 0.010000 0.000000
v 0.825000 0.060000 1.237498
v 0.825000 0.060000 1.649997
v -0.825000 0.060000 1.237498
v -0.825000 0.060000 -0.000000
v 0.825000 0.060000 -0.000000
v -0.825000 0.060000 0.412499
v -0.825000 0.060000 0.824999
v 0.825000 0.060000 0.824999
v 0.825000 0.060000 0.412499
v -0.825000 0.060000 1.649997
vn 0.0000 -1.0000 -0.0000
vn 0.0000 1.0000 0.0000
vn -1.0000 0.0000 0.0000
vn 1.0000 0.0000 0.0000
vn -0.7071 0.0000 -0.7071
vn 0.7071 -0.0000 -0.7071
vn -0.7071 0.0000 0.7071
vn 0.7071 0.0000 0.7071
usemtl VisibleMask
s 1
f 1//1 3//1 2//1
f 4//1 6//1 5//1
f 7//1 8//1 6//1
f 9//1 5//1 3//1
f 1//1 2//1 10//1
f 4//1 5//1 9//1
f 7//1 6//1 4//1
f 9//1 3//1 1//1
f 19//2 14//2 16//2
f 11//2 17//2 13//2
f 12//2 13//2 20//2
f 18//2 16//2 17//2
f 19//2 15//2 14//2
f 11//2 18//2 17//2
f 12//2 11//2 13//2
f 18//2 19//2 16//2
f 6//3 17//3 5//3
f 1//4 18//4 9//4
f 3//3 14//5 2//5
f 2//5 15//6 10//6
f 8//7 13//3 6//3
f 7//8 20//7 8//7
f 9//4 11//4 4//4
f 5//3 16//3 3//3
f 4//4 12//8 7//8
f 10//6 19//4 1//4
f 6//3 13//3 17//3
f 1//4 19//4 18//4
f 3//3 16//3 14//5
f 2//5 14//5 15//6
f 8//7 20//7 13//3
f 7//8 12//8 20//7
f 9//4 18//4 11//4
f 5//3 17//3 16//3
f 4//4 11//4 12//8
f 10//6 15//6 19//4
